<svg xmlns="http://www.w3.org/2000/svg" xmlns:xlink="http://www.w3.org/1999/xlink" version="1.1" id="Layer_1" x="0px" y="0px" style="enable-background:new 0 0 4000 4000;" xml:space="preserve" viewBox="601.02 815.12 2932.19 2491.73">
<g>
	<g>
		<g>
		</g>
	</g>
	<g>
		<g>
			<g style="opacity:0.2;">
				<g>
					<g>
						<path style="fill:#000072;" d="M931.057,1846.581c-33.74,22.24-153.333,106.892-201.301,270.715        c-7.682,26.237-45.194,162.657,13.883,312.364c42.565,107.864,119.772,169.089,274.186,291.54        c77.599,61.536,176.065,138.541,326.247,204.772c35.217,15.531,135.652,57.976,273.318,86.768        c68.044,14.231,150.413,30.941,260.303,28.634c0,0,193.646-4.067,308.335-72.08c0.076-0.045,0.626-0.372,1.387-0.777        c3.065-1.631,9.721-4.604,17.719-3.977c11.957,0.936,20.309,11.774,27.458,21.404        c138.43,186.468,387.871,244.826,616.811,283.807c26.236,4.467,53.495,8.81,79.143,1.706        c25.648-7.104,49.219-29.079,49.134-55.693c-0.055-17.255-9.675-32.937-20.01-46.755        c-93.37-124.831-263.602-175.585-351.791-304.129c-6.818-9.937-13.341-21.71-10.556-33.435        c3.362-14.158,18.497-21.707,32.134-26.785c81.673-30.408,180.357-47.524,223.412-123.296        c49.186-86.563-5.544-193.928-64.095-274.453c-169.401-232.973-343.013-403.034-459.154-473.036        c-123.254-74.289-235.608-114.556-291.144-134.149c-58.531-20.65-140.762-49.221-251.652-66.788        c-30.585-4.845-138.238-20.717-294.984-11.303C1368.486,1728.924,1171.328,1754.154,931.057,1846.581z"/>
					</g>
				</g>
			</g>
			<g>
				<g>
					<path style="fill:#FFFFFF;" d="M1755.596,1156.298c-5.171,42.165-10.468,71.13-10.468,71.13l-411.431-100.262       c0,0,101.818-110.225,201.491-195.353c66.883-57.131,132.758-102.952,166.221-96.52       C1781.786,850.678,1769.048,1047.503,1755.596,1156.298z"/>
				</g>
			</g>
			<g style="opacity:0.3;">
				<g>
					<path style="fill:#000072;" d="M1755.596,1156.298c-5.171,42.165-10.468,71.13-10.468,71.13l-411.431-100.262       c0,0,101.818-110.225,201.491-195.353c-2.481,30.814,2.48,64.151,25.685,90.004       C1591.603,1056.078,1690.857,1103.54,1755.596,1156.298z"/>
				</g>
			</g>
			<g>
				<g>
					<path style="fill:#000072;" d="M1745.161,1245.648c-1.084,0-2.188-0.098-3.296-0.3c-9.897-1.809-16.455-11.301-14.648-21.199       c26.782-146.582,35.425-358.581-29.219-370.969c-10.103-1.919-54.292,2.078-199.199,135.332       c-80.049,73.611-150.996,150.261-151.704,151.025c-6.821,7.395-18.354,7.849-25.747,1.021       c-7.393-6.829-7.852-18.354-1.021-25.747c0.713-0.776,72.534-78.374,153.652-152.983       c152.188-139.981,204.702-149.448,230.874-144.439c57.188,10.957,82.852,83.757,78.467,222.556       c-3.022,95.628-19.551,186.919-20.254,190.759C1761.46,1239.494,1753.794,1245.648,1745.161,1245.648z"/>
				</g>
			</g>
			<g>
				<g>
					<path style="fill:#FFFFFF;" d="M1929.342,1750.219c-15.008,101.817-44.477,171.223-44.477,171.223l-874.276,222.132       c0,0-127.335-53.347-236.719-136.751c-80.546-61.335-151.339-138.98-154.576-223.687       c-3.111-82.732,99.757-192.116,99.757-192.116s0.463-22.491,3.952-57.467c9.123-90.172,38.676-263.413,133.514-348.794       c93.872-84.539,288.216-153.609,487.689-146.294c122.038,4.456,246.01,37.499,350.055,113.126       C1939.767,1330.002,1953.892,1583.578,1929.342,1750.219z"/>
				</g>
			</g>
			<g style="opacity:0.3;">
				<g>
					<path style="fill:#000072;" d="M1929.342,1750.219c-15.008,101.817-44.477,171.223-44.477,171.223l-874.276,222.132       c0,0-127.335-53.347-236.719-136.751c67.472,16.185,169.836,17.614,286.493-59.695       C1273.666,1805.836,1588.787,1646.552,1929.342,1750.219z"/>
				</g>
			</g>
			<g>
				<g>
					<path style="fill:#FF6F03;" d="M1357.785,1146.755c0,240.377-194.849,435.183-435.183,435.183       c-71.928,0-139.82-17.446-199.599-48.386c9.123-90.172,38.676-263.413,133.514-348.794       c93.872-84.539,288.216-153.609,487.689-146.294C1353.077,1073.104,1357.785,1109.383,1357.785,1146.755z"/>
				</g>
			</g>
			<g style="opacity:0.6;">
				<g>
					<path style="fill:#FFFFFF;" d="M1350.849,1069.152c-198.484-3.333-376.569,59.858-467.036,141.329       c-89.164,80.294-119.696,243.661-130.71,337.196c-10.257-4.33-20.263-9.038-30.1-14.125       c9.123-90.172,38.676-263.413,133.514-348.794c93.872-84.539,288.216-153.609,487.689-146.294       C1346.771,1048.554,1348.999,1058.769,1350.849,1069.152z"/>
				</g>
			</g>
			<g>
				<g>
					<path style="fill:#000072;" d="M1009.175,2162.74l-5.62-2.354c-16.103-6.746-394.507-167.627-402.451-376.57       c-3.022-79.553,78.906-176.531,99.951-200.081c1.797-46.24,17.315-299.138,143.262-412.515       c83.086-74.793,229.907-131.099,383.159-146.946c182.114-18.821,351.67,21.155,477.495,112.588       c210.566,153.018,252.773,360.513,251.103,507.634c-1.797,158.32-52.285,279.016-54.434,284.077l-3.53,8.313L1009.175,2162.74z        M1313.296,1056.471c-181.226,0-355.483,61.619-444.595,141.836c-124.204,111.804-131.367,390.303-131.426,393.103       l-0.146,6.997l-4.795,5.112c-27.163,28.921-97.153,117.444-94.815,178.913c6.587,173.303,328.345,321.528,374.624,341.956       l859.18-218.293c11.108-29.465,47.08-134.636,48.325-263.225c1.943-200.94-77.495-361.267-236.104-476.523       C1575.576,1087.885,1442.652,1056.471,1313.296,1056.471z"/>
				</g>
			</g>
			<g>
				<g>
					<path style="fill:#FFFFFF;" d="M2369.023,2679.608c-243.151,5.044-338.285,77.183-632.092,76.173       c-277.539-0.967-536.958-125.737-658.618-325.462c-55.323-90.845-82.143-197.161-69.237-314.406       c0,0,127.924-171.601,377.506-273.082c120.062-48.807,268.248-81.429,443.928-70.877       c307.05,18.413,597.704,198.464,719.238,334.416c68.943,31.95,120.23,71.592,154.198,115.774       c33.756,43.888,50.404,92.274,50.32,142.049C2754.096,2451.002,2796.303,2670.737,2369.023,2679.608z"/>
				</g>
			</g>
			<g style="opacity:0.3;">
				<g>
					<path style="fill:#000072;" d="M2369.023,2645.492c-243.151,4.668-338.285,71.427-632.092,70.493       c-277.539-0.895-536.958-116.36-658.618-301.19l155.879-45.323c0,0,32.118,136.162,179.294,178.062       c167.188,47.618,297.171-79.052,297.171-79.052s248.848,168.788,371.502-64.651c8.953-17.04,165.204,10.069,165.204,10.069       l106.988-57.5c0,0,198.128,77.496,284.686,25.443c56.374-33.885,66.336-105.973,64.908-159.699       c33.756,40.615,50.404,85.393,50.32,131.455C2754.096,2433.934,2796.303,2637.283,2369.023,2645.492z"/>
				</g>
			</g>
			<g>
				<g>
					<path style="fill:#000072;" d="M1743.194,2774.003c-2.1,0-4.185-0.005-6.309-0.012c-243.823-0.854-472.72-94.717-612.3-251.079       c-104.048-116.558-150.249-257.981-133.604-408.985l0.542-4.922l2.959-3.97c5.347-7.175,133.838-176.873,385.249-279.099       c141.187-57.407,293.213-81.68,451.86-72.168c178.789,10.727,335.986,73.943,436.377,125.085       c118.521,60.379,224.995,137.708,292.822,212.59c136.729,64.341,211.875,161.108,211.685,272.778       c-0.015,6.304,0.22,13.623,0.469,21.375c1.748,55.12,4.395,138.418-60.381,206.682       c-63.198,66.611-178.662,102.117-343.179,105.532c-110.42,2.292-189.185,18.499-272.573,35.655       C1999.932,2753.4,1899.776,2774.003,1743.194,2774.003z M1026.665,2123.033c-13.887,138.523,29.312,268.298,125.107,375.61       c132.808,148.774,351.587,238.086,585.239,238.906c156.392,0.667,256.089-19.951,352.456-39.778       c85.063-17.502,165.41-34.033,279.165-36.396c154.424-3.206,261.245-34.893,317.495-94.18       c54.302-57.231,52.041-128.445,50.391-180.442c-0.259-8.064-0.498-15.681-0.488-22.595       c0.166-97.554-68.716-183.23-193.96-241.24l-3.418-1.582l-2.515-2.81c-130.903-146.489-423.081-311.362-706.729-328.381       c-153.159-9.189-299.844,14.209-435.947,69.551C1172.222,1949.652,1047.09,2097.538,1026.665,2123.033z"/>
				</g>
			</g>
			<g>
				<g>
					<path style="fill:#FFFFFF;" d="M1809.156,2405.613c30.663-4.946,124.632-19.783,166.176,74.186       c50.786,114.873-23.199,550.274-251.737,519.3c-202.527-27.449-98.339-273.879-78.637-335.32       c25.915-80.812,31.092-139.808,65.706-175.441"/>
				</g>
			</g>
			<g>
				<g>
					<path style="fill:#FFFFFF;" d="M2517.123,2317.752c0,0-60.112,39.664-34.742,123.655       c34.436,114.007,233.009,253.9,408.159,235.214c104.541-11.153,156.057-137.057,90.807-213.213       c-35.814-41.799-113.226-72.054-167.725-99.856c-57.569-29.369-104.386-74.581-158.03-80.967"/>
				</g>
			</g>
			<g style="opacity:0.3;">
				<g>
					<path style="fill:#000072;" d="M2890.553,2676.623c-175.174,18.665-373.722-121.198-408.152-235.206       c-8.114-26.863-7.482-49.186-2.901-67.136c5.24,129.257,246.591,282.574,407.144,245.337       c64.794-15.027,105.223-90.005,83.531-167.776c4.035,3.783,7.819,7.609,11.182,11.561       C3046.601,2539.577,2995.061,2665.482,2890.553,2676.623z"/>
				</g>
			</g>
			<g>
				<g>
					<path style="fill:#000072;" d="M2521.785,2324.816c-1.458,2.024-3.599,4.664-5.295,7.091c-1.726,2.539-3.53,4.963-5.066,7.587       c-3.254,5.083-5.935,10.41-8.408,15.677c-4.656,10.72-7.791,21.665-9.102,32.993c-2.91,22.572,2.551,46.937,13.188,68.75       c10.75,22.111,26.221,42.706,43.657,61.479c17.493,18.806,37.183,35.85,58.083,51.244       c41.934,30.604,88.599,55.319,137.869,71.201c24.624,7.882,49.868,13.658,75.298,16.476       c12.708,1.437,25.454,2.153,38.145,2.061c6.35-0.001,12.678-0.28,18.987-0.707c3.154-0.192,6.294-0.548,9.436-0.813l8.63-1.246       c22.847-4.115,43.984-15.454,60.332-32.025c16.155-16.674,27.769-38.251,32.012-61.156c2.161-11.418,2.712-23.109,1.299-34.493       c-1.462-11.372-4.746-22.415-9.78-32.614c-5.015-10.234-11.809-19.519-20.112-27.688c-8.389-8.295-18.362-15.852-28.894-22.902       c-21.226-14.053-44.778-26.062-68.76-37.756l-36.453-17.534l-18.442-9.104c-6.169-3.115-12.588-6.504-18.638-9.973       c-12.244-6.906-23.943-14.333-35.166-22.01l-32.678-23.258c-21.489-15.039-42.932-28.811-67.334-35.106l-0.139-0.035       c-4.556-1.176-7.297-5.823-6.121-10.38c0.991-3.846,4.463-6.396,8.259-6.393c14.656,0.017,29.238,3.123,42.837,7.822       c13.694,4.589,26.563,10.66,38.877,17.122c12.336,6.454,24.092,13.396,35.637,20.2c11.46,6.951,22.605,13.917,33.826,20.354       c5.662,3.236,11.179,6.16,17.061,9.115l17.883,8.767l36.565,17.467c24.526,11.903,49.275,24.325,73.147,40.01       c11.895,7.931,23.616,16.644,34.48,27.3c10.967,10.724,20.422,23.469,27.327,37.458c6.963,13.976,11.497,29.137,13.491,44.529       c1.953,15.408,1.26,31.002-1.563,46.086c-5.596,30.228-20.508,58.29-41.824,80.386c-21.445,21.987-50.005,37.41-80.347,42.902       l-11.399,1.675c-3.579,0.32-7.148,0.724-10.728,0.955c-7.153,0.508-14.314,0.835-21.462,0.859       c-14.299,0.151-28.545-0.746-42.649-2.355c-28.232-3.201-55.854-9.614-82.603-18.246       c-26.726-8.723-52.605-19.695-77.395-32.667c-24.824-12.914-48.569-27.854-70.916-44.745       c-22.339-16.888-43.435-35.573-62.466-56.536c-18.96-20.979-36.152-44.133-48.743-70.785       c-6.299-13.303-11.084-27.765-13.904-42.504c-2.71-14.846-3.542-30.444-1.157-45.897c2.385-15.411,8.274-30.448,17.241-43.029       c4.382-6.351,9.604-12.037,15.269-17.083c2.893-2.469,5.837-4.852,9.036-6.921c3.254-2.156,6.262-3.901,10.347-5.732       c4.275-1.917,9.294-0.004,11.211,4.271c1.279,2.855,0.852,6.041-0.847,8.414L2521.785,2324.816z"/>
				</g>
			</g>
			<g>
				<g>
					<path style="fill:#FFFFFF;" d="M3272.606,3249.876c-86.421,27.436-189.761,41.804-296.538,37.015       c-182.316-8.174-374.628-72.364-509.778-222.82c-239.479-266.759-170.447-639.669-384.155-645.604l125.154-253.223       c129.058,21.762,232.971,115.731,304.971,357.032c92.824,311.115,188.511,407.531,494.68,380.043       c25.979-2.395,53.519-5.623,82.672-9.683c202.776-28.321,366.976-94.438,414.871,52.373v0.052       c2.499,7.549,4.634,15.67,6.456,24.364C3538.167,3098.536,3424.363,3201.616,3272.606,3249.876z"/>
				</g>
			</g>
			<g>
				<g>
					<path style="fill:#FF6F03;" d="M3497.195,3084.375c-35.662,74.499-121.353,132.703-224.59,165.501       c-86.421,27.436-189.761,41.804-296.538,37.015c-47.375-80.902-60.026-182.004-31.757-271.548       c8.121-25.926,19.679-50.655,34.048-73.718c8.538-13.744,18.117-26.863,28.581-39.306c25.979-2.395,53.519-5.623,82.672-9.683       c108.911-15.202,206.681-41.336,281.284-39.462c64.295,1.562,111.41,23.896,133.587,91.835v0.052       c2.499,7.549,4.634,15.67,6.456,24.364C3519.634,3010.709,3513.906,3049.338,3497.195,3084.375z"/>
				</g>
			</g>
			<g style="opacity:0.6;">
				<g>
					<g>
						<path style="fill:#FFFFFF;" d="M3497.195,3084.375c5.466-23.792,5.727-48.885,0-75.02c-1.926-8.694-4.113-16.815-6.716-24.364        v-0.052c-49.926-146.811-221.049-80.694-432.364-52.373c-28.009,3.748-54.559,6.716-79.757,9.058        c8.902-13.744,18.898-26.863,29.779-39.306c27.072-2.395,55.757-5.623,86.16-9.683        c105.631-14.161,201.162-37.744,276.598-39.462c64.295,1.562,111.41,23.896,133.587,91.835v0.052        c2.499,7.549,4.634,15.67,6.456,24.364C3519.634,3010.709,3513.906,3049.338,3497.195,3084.375z"/>
					</g>
				</g>
			</g>
			<g style="opacity:0.3;">
				<g>
					<path style="fill:#000072;" d="M3266.41,3222.284c-125.511,44.442-233.447,39.741-295.444,36.442       c-89.576-4.767-154.314-22.18-172.668-27.332c-77.448-21.737-133.266-50.866-156.616-63.774       c-28.155-15.565-106.316-61.293-184.381-146.203c0,0-144.201-156.845-193.562-380.56c-0.24-1.087-1.197-5.481-2.663-11.412       c-4.363-17.654-13.847-50.908-32.638-89.058c-17.039-34.593-35.483-60.526-48.06-76.684       c-8.377-9.112-22.225-21.958-42.383-32.307c-24.685-12.673-47.379-15.721-60.737-16.486       c5.322-9.236,17.428-27.271,39.913-39.913c31.427-17.67,66.9-15.683,91.108-6.088c44.479,17.629,63.889,65.946,70.724,83.24       c53.978,136.583,97.445,387.049,293.261,569.496c238.863,222.552,884.785,237.392,932.205-113.42       c1.24,3.784,2.396,7.704,3.474,11.765c0,0.001,1.686,6.313,3,12.617c1.539,7.384,4.835,111.094-83.146,199.871       C3377.934,3182.795,3325.437,3201.383,3266.41,3222.284z"/>
				</g>
			</g>
			<g>
				<g>
					<path style="fill:#000072;" d="M2208.799,2156.267c20.439,1.963,40.854,6.11,60.713,12.498       c19.841,6.425,39.031,15.267,57.073,26.039c18.044,10.791,34.873,23.607,50.166,37.925       c15.374,14.246,29.38,29.834,41.946,46.377c25.339,32.977,45.493,69.172,62.6,106.25c8.608,18.542,16.443,37.373,23.599,56.399       c7.283,18.992,13.804,38.206,19.971,57.5c6.152,19.513,11.66,38.177,17.808,57.03c6.077,18.785,12.434,37.439,19.207,55.878       c13.496,36.884,28.796,72.91,47,106.855c18.303,33.815,40.01,65.443,67,91.105c26.863,25.767,59.124,44.934,94.59,56.93       c35.439,12.168,73.611,17.587,112.178,19.591c38.645,1.874,77.822,0.316,116.982-2.965       c39.133-3.352,78.494-8.258,117.424-14.321c39.038-6.101,78.071-13.55,117.617-20.433       c39.575-6.725,79.646-13.408,121.587-14.36c20.94-0.366,42.512,0.854,64.192,6.179c10.818,2.622,21.604,6.52,31.936,11.68       c10.303,5.227,20.081,11.918,28.682,19.827c17.317,15.907,29.231,36.169,37.012,56.606c3.94,10.26,6.97,20.656,9.426,31.051       c2.48,10.354,4.146,21.366,5.168,32.238c1.548,21.89-0.205,44.281-6.101,65.507c-5.764,21.261-15.007,41.37-26.787,59.471       c-11.646,18.234-25.657,34.559-40.947,49.192c-15.295,14.646-31.807,27.765-49.167,39.355       c-34.734,23.219-72.322,41.141-111.064,55.074c-38.813,13.86-78.408,23.889-118.545,31.316       c-40.12,7.36-80.688,11.92-121.375,13.787c-81.348,3.779-163.284-3.022-242.92-21.298       c-79.548-18.351-156.851-48.735-226.587-92.336c-34.832-21.793-67.698-46.854-97.827-74.906       c-30.129-28.071-57.505-59.043-81.687-92.2c-48.469-66.436-83.992-140.951-111.567-216.913       c-27.937-75.917-47.683-154.03-73.232-227.981c-13.142-36.614-27.493-72.875-49.954-101.835       c-11.152-14.473-24.604-26.526-40.344-35.149c-15.696-8.759-33.792-13.441-52.661-15.651l-0.183-0.021       c-5.01-0.586-8.594-5.122-8.008-10.131c0.53-4.524,4.285-7.886,8.696-8.063c20.908-0.854,42.881,1.974,63.174,10.724       c20.315,8.53,38.452,22.351,52.737,38.566c14.431,16.2,25.898,34.246,35.435,52.776c4.846,9.25,9.158,18.643,13.34,28.06       c4.05,9.457,7.781,18.986,11.365,28.521c14.329,38.134,25.527,76.648,37.41,114.637       c11.765,38.026,23.813,75.682,37.524,112.556c27.239,73.707,61.633,144.445,107.717,206.863       c23.003,31.177,48.562,60.378,76.831,86.683c28.252,26.34,59.099,49.906,91.892,70.459       c65.625,41.152,138.877,69.932,214.668,87.682c75.879,17.633,154.436,24.401,232.471,20.977       c39.026-1.685,77.939-5.959,116.323-12.894c38.315-6.973,76.35-16.527,112.72-29.431       c36.326-12.959,71.311-29.619,102.993-50.699c15.845-10.518,30.696-22.307,44.243-35.22       c13.555-12.899,25.708-27.059,35.571-42.455c20.193-30.553,30.166-66.39,27.402-102.18       c-1.523-17.627-5.747-36.257-12.19-52.963c-6.443-16.733-15.581-31.604-27.788-42.738       c-12.175-11.166-27.49-18.586-44.634-22.716c-17.129-4.171-35.74-5.333-54.636-4.912c-37.915,0.946-76.86,7.406-115.842,14.208       c-39.038,6.927-78.369,14.573-118.149,20.93c-39.885,6.35-79.739,11.433-120.095,15.023       c-40.315,3.494-81.042,5.284-122.126,3.422c-41.011-1.981-82.668-7.742-122.849-21.45       c-40.139-13.466-78.125-35.938-108.872-65.475c-30.962-29.424-54.839-64.531-74.492-100.74       c-19.673-36.326-35.068-74.191-48.835-112.261c-6.86-19.056-13.254-38.214-19.333-57.426       c-6.101-19.119-11.77-38.757-17.502-57.328c-5.862-18.74-12.048-37.363-18.938-55.667       c-6.77-18.358-14.163-36.434-22.244-54.127c-15.986-35.474-35.056-69.31-57.534-100.25       c-22.659-30.751-48.962-58.586-80.09-80.11c-15.532-10.762-32.095-20.101-49.578-27.773       c-17.512-7.59-35.85-13.612-54.727-18.401l-0.09-0.023c-4.89-1.24-7.847-6.208-6.606-11.099       C2200.198,2158.682,2204.387,2155.839,2208.799,2156.267z"/>
				</g>
			</g>
			<g>
				<g>
					<path style="fill:#FFFFFF;" d="M1357.785,1855.089c-133.116,67.034-270.075,159.808-390.031,305.902       c0,0-108.109-98.768-218.085-2.764c-38.613,33.707-59.495,115.385,43.269,219.952       c128.339,130.591,277.645,184.346,441.257,3.156"/>
				</g>
			</g>
			<g style="opacity:0.3;">
				<g>
					<path style="fill:#000072;" d="M1236.479,2376.732c-16.093,17.246-84.727,86.852-192.803,92.133       c-131.491,6.426-213.526-89.978-236.65-112.103c-71.465-68.38-83.152-126.325-70.583-165.93       c11.099,26.008,29.498,61.207,59.806,94.06c86.741,94.025,205.99,119.957,205.991,119.957       C1117.039,2428.407,1207.466,2390.385,1236.479,2376.732z"/>
				</g>
			</g>
			<g>
				<g>
					<path style="fill:#000072;" d="M1365.981,1871.364c-73.438,37.016-143.713,80.007-208.386,130.304       c-64.722,50.199-123.677,107.644-175.747,170.87l-0.012,0.016c-6.55,7.787-18.171,8.79-25.957,2.241l-0.042-0.034l-0.373-0.317       c-1.155-0.977-3.245-2.661-5.02-3.978c-1.85-1.398-3.767-2.786-5.727-4.117c-3.901-2.69-7.937-5.253-12.07-7.629       c-8.247-4.786-16.831-8.965-25.593-12.43c-17.522-6.945-35.92-10.802-54.036-10.53c-18.137,0.079-35.891,4.492-52.4,12.335       c-8.198,4.07-16.216,8.677-23.77,14.259c-3.872,2.611-7.512,5.645-11.157,8.671l-2.749,2.246l-2.136,2.131       c-1.355,1.478-3.001,2.637-4.175,4.323c-5.469,5.99-9.351,13.403-12.669,20.968c-1.25,3.988-2.949,7.809-3.579,12.034       c-0.398,2.078-1.008,4.099-1.282,6.212l-0.596,6.401c-1.399,17.14,2.08,35.227,9.021,52.515       c6.933,17.338,16.977,33.909,28.401,49.729c12.117,15.541,25.034,30.311,39.563,44.651       c28.862,28.556,60.129,54.53,94.465,74.054c34.138,19.614,71.731,32.417,109.892,32.533       c38.167,0.515,75.781-11.677,110.244-30.967c17.261-9.672,33.909-20.927,50.103-33.156       c16.077-12.407,31.584-25.826,47.239-39.469l0.156-0.137c3.811-3.322,9.592-2.925,12.913,0.886       c2.878,3.301,2.959,8.085,0.454,11.462c-12.722,17.163-26.663,33.593-42.209,48.683       c-15.613,15.009-32.598,28.939-51.252,40.825c-18.538,12.064-38.945,21.74-60.476,28.695       c-21.584,6.769-44.385,10.47-67.239,10.576c-22.844,0.114-45.686-3.192-67.344-9.606c-21.692-6.357-42.31-15.386-61.687-26.116       c-38.735-21.653-72.6-49.559-103.464-79.584c-7.747-7.367-15.195-15.525-22.671-23.586c-1.851-2.037-3.789-3.972-5.549-6.107       l-5.22-6.481l-10.388-13.008c-13.069-18.126-24.927-37.568-33.516-59.188c-8.547-21.526-13.56-45.618-11.563-70.309l0.93-9.231       c0.42-3.069,1.228-6.116,1.851-9.169c1.074-6.154,3.418-12.054,5.459-18c4.949-11.594,11.121-22.876,19.756-32.48       c1.934-2.552,4.478-4.648,6.719-6.965l3.484-3.353l3.328-2.731c4.417-3.661,8.845-7.301,13.652-10.571       c9.292-6.876,19.602-12.599,30.227-17.654c10.708-4.971,22.07-8.704,33.672-11.401c11.638-2.651,23.608-3.768,35.478-3.767       c23.818,0.018,47.097,5.421,68.345,14.205c10.674,4.346,20.808,9.707,30.53,15.663c4.868,2.975,9.602,6.15,14.236,9.525       c2.327,1.675,4.612,3.416,6.892,5.233c2.366,1.885,4.343,3.502,7.107,6l-26.372,1.89l0.012-0.016       c53.752-65.284,114.736-124.704,181.558-176.526c66.768-51.927,139.177-96.185,214.348-134.07       c8.987-4.529,19.944-0.916,24.473,8.071C1378.591,1855.873,1374.966,1866.834,1365.981,1871.364z"/>
				</g>
			</g>
			<g>
				<g>
					<g>
						<path style="fill:#FFFFFF;" d="M904.585,2256.935c0,0,30.398-53.153,63.169-95.944"/>
					</g>
				</g>
				<g>
					<g>
						<path style="fill:#000072;" d="M896.675,2252.412c8.457-17.603,17.3-34.746,26.643-51.855        c9.341-17.083,19.187-33.973,29.968-50.645c5.483-8.477,16.799-10.903,25.276-5.42c8.477,5.482,10.903,16.799,5.42,25.276        c-0.513,0.793-1.152,1.616-1.763,2.302c-12.427,13.816-24.417,28.438-36.02,43.434        c-11.584,14.982-22.937,30.415-33.706,45.953l-0.078,0.112c-2.871,4.146-8.562,5.178-12.708,2.305        C895.964,2261.281,894.761,2256.389,896.675,2252.412z"/>
					</g>
				</g>
			</g>
			<g>
				<g>
					<path style="fill:#FF6F03;" d="M817.19,1299.046c0,0-84.323-317.55-27.079-380.203c76.6-83.838,356.993,168.05,356.993,168.05"/>
				</g>
			</g>
			<g style="opacity:0.6;">
				<g>
					<path style="fill:#FFFFFF;" d="M1147.088,1086.892L1147.088,1086.892c-14.597,9.4-33.562,8.541-47.191-2.214       c-87.152-68.777-241.207-175.206-294.961-116.376c-42.838,46.915-6.348,236.804,14.714,329.204l-2.439,1.555       c0,0-84.33-317.559-27.115-380.239C866.691,834.997,1147.088,1086.892,1147.088,1086.892z"/>
				</g>
			</g>
			<g>
				<g>
					<path style="fill:#000072;" d="M808.386,1301.384c-7.195-15.709-12.834-31.682-17.988-47.874       c-5.188-16.166-9.509-32.56-13.391-49.066c-7.554-33.051-14.038-66.429-18.491-100.283c-2.19-16.937-4.158-33.946-5.454-51.116       c-1.16-17.194-1.833-34.514-1.484-52.088c0.452-17.586,1.487-35.399,5.862-53.953c1.311-4.69,2.202-9.269,4.187-14.076       c0.901-2.38,1.746-4.743,2.732-7.118l3.769-7.214c1.118-2.382,2.908-4.775,4.71-7.13c1.814-2.303,3.506-4.811,5.608-6.718       c3.923-4.148,8.596-7.697,13.494-10.693c9.888-6.054,20.896-8.921,31.213-10.098c10.391-1.14,20.317-0.573,29.761,0.771       c18.872,2.829,36.138,8.401,52.661,14.908c33.003,13.126,62.952,30.489,91.919,48.854       c28.813,18.615,56.289,38.839,82.666,60.291c26.233,21.671,51.177,44.672,73.035,71.334c3.225,3.937,2.651,9.744-1.287,12.971       c-3.14,2.574-7.471,2.729-10.732,0.687l-0.159-0.103c-56.895-35.732-108.618-77.576-164.37-112.614       c-27.627-17.689-56.121-34.042-85.31-46.427c-14.568-6.062-29.446-11.052-43.813-13.26c-14.312-2.25-27.9-1.287-36.87,4.111       c-1.094,0.728-2.278,1.332-3.25,2.222c-1.074,0.749-2.041,1.658-2.974,2.622c-1.108,0.85-1.563,2.022-2.371,2.989       c-0.745,0.984-1.58,1.882-2.17,3.369l-2.056,3.95l-1.687,4.671c-1.289,2.953-1.924,6.683-2.876,10.071       c-3.21,14.199-4.285,30.131-4.309,46.074c0.054,32.053,3.506,64.877,7.813,97.565c4.587,32.702,9.761,65.502,15.557,98.271       c5.523,32.806,10.925,65.807,13.667,99.424l0.007,0.076c0.413,5.089-3.374,9.55-8.462,9.964       C813.562,1307.073,809.963,1304.811,808.386,1301.384z"/>
				</g>
			</g>
			<g>
				<g>
					
						<ellipse transform="matrix(0.3815 -0.9244 0.9244 0.3815 -1458.073 3377.8477)" style="fill:#FF67A0;" cx="1795.191" cy="2778.526" rx="92.615" ry="73.898"/>
				</g>
			</g>
			<g>
				<g>
					
						<ellipse transform="matrix(0.3815 -0.9244 0.9244 0.3815 -1600.0205 3336.2722)" style="fill:#FF67A0;" cx="1693.143" cy="2863.811" rx="34.054" ry="27.172"/>
				</g>
			</g>
			<g>
				<g>
					
						<ellipse transform="matrix(0.3815 -0.9244 0.9244 0.3815 -1616.9788 3414.156)" style="fill:#FF67A0;" cx="1742.874" cy="2915.43" rx="37.153" ry="29.645"/>
				</g>
			</g>
			<g>
				<g>
					
						<ellipse transform="matrix(0.3815 -0.9244 0.9244 0.3815 -1561.9056 3466.5391)" style="fill:#FF67A0;" cx="1809.53" cy="2900.454" rx="28.563" ry="22.79"/>
				</g>
			</g>
			<g>
				<g>
					
						<ellipse transform="matrix(0.3007 -0.9537 0.9537 0.3007 -460.3123 4409.0449)" style="fill:#FF67A0;" cx="2776.578" cy="2518.431" rx="73.898" ry="92.615"/>
				</g>
			</g>
			<g>
				<g>
					
						<ellipse transform="matrix(0.3008 -0.9537 0.9537 0.3008 -346.3675 4517.4287)" style="fill:#FF67A0;" cx="2907.478" cy="2494.92" rx="27.172" ry="34.054"/>
				</g>
			</g>
			<g>
				<g>
					
						<ellipse transform="matrix(0.3007 -0.9537 0.9537 0.3007 -408.9653 4574.5889)" style="fill:#FF67A0;" cx="2915.139" cy="2566.187" rx="29.645" ry="37.153"/>
				</g>
			</g>
			<g>
				<g>
					
						<ellipse transform="matrix(0.3008 -0.9537 0.9537 0.3008 -486.5031 4551.833)" style="fill:#FF67A0;" cx="2860.872" cy="2607.687" rx="22.79" ry="28.563"/>
				</g>
			</g>
			<g style="opacity:0.3;">
				<g>
					<path style="fill:#000072;" d="M1931.191,2851.167c-43.678,92.485-112.159,160.882-207.586,147.934       c-166.893-22.617-125.485-193.924-94.755-287.922c-17.95,95.638-9.123,203.719,125.484,221.963       C1827.86,2943.105,1886.546,2908.255,1931.191,2851.167z"/>
				</g>
			</g>
			<g>
				<g>
					<path style="fill:#000072;" d="M1807.705,2396.619c29.81-7.642,63.069-10.802,95.698-1.957       c16.143,4.558,32.08,11.959,45.623,22.738c6.841,5.275,13.101,11.292,18.699,17.789c5.735,6.416,10.61,13.442,15.005,20.673       c2.07,3.666,4.285,7.294,6.052,11.074l2.788,5.632l2.585,6.089c3.181,8.11,5.496,16.163,7.417,24.181       c3.645,16.055,5.53,31.929,6.653,47.719c2.146,31.57,0.991,62.788-1.96,93.756c-3.025,30.962-8.44,61.583-15.522,91.831       c-7.148,30.233-16.184,60.094-27.729,89.167c-11.533,29.059-25.398,57.45-42.808,84.114       c-17.368,26.602-38.411,51.705-64.775,71.771c-26.274,19.915-58.669,33.987-92.495,36.937       c-16.775,1.649-33.899,0.618-49.973-2.054c-16.125-2.665-32.371-7.074-47.988-14.081c-15.569-7.009-30.559-16.81-42.903-29.601       c-12.373-12.739-21.887-28.129-28.242-44.215c-6.372-16.124-9.758-32.83-11.311-49.277       c-1.501-16.466-1.255-32.737,0.073-48.698c2.605-31.957,9.658-62.678,18.398-92.463c4.355-14.904,9.192-29.583,14.229-44.06       c5.017-14.55,10.332-28.622,14.924-42.378c4.695-14.059,8.975-28.315,13.425-42.666c4.343-14.384,8.662-28.923,13.564-43.55       c4.817-14.639,10.337-29.403,17.595-43.824c7.251-14.335,16.799-28.39,29.402-39.276c3.823-3.301,9.597-2.878,12.898,0.944       c2.91,3.368,2.927,8.254,0.273,11.626l-0.103,0.127c-17.075,21.727-24.211,49.813-31.133,78.639       c-6.648,28.971-13.071,58.978-21.77,88.601c-4.258,15.178-9.517,29.467-14.106,43.601       c-4.663,14.174-9.053,28.314-12.942,42.517c-3.887,14.198-7.344,28.442-10.068,42.71c-2.808,14.25-5.061,28.506-6.267,42.69       c-2.454,28.268-0.818,56.61,8.354,80.908c4.644,12.079,11.272,22.933,19.871,32.028c8.604,9.084,19.231,16.384,31.179,21.847       c11.958,5.447,25.117,9.204,38.799,11.533c13.74,2.338,27.051,3.149,40.41,1.941c26.68-2.078,51.895-13.247,73.711-29.778       c21.797-16.738,40.271-38.636,55.774-62.704c15.474-24.154,28.105-50.503,38.625-77.749       c20.903-54.607,34.148-112.69,40.488-171.125c3.206-29.191,4.663-58.632,3.096-87.469c-0.811-14.385-2.351-28.658-5.227-42.158       c-1.392-6.733-3.081-13.301-5.232-19.351l-1.704-4.414l-2.087-4.611c-1.309-3.137-2.974-6.016-4.495-9.004       c-12.649-23.489-32.449-41.699-57.893-50.842c-12.583-4.836-26.355-7.3-40.466-8.492c-14.182-1.099-28.577-0.605-43.508,0.603       c-5.029,0.408-9.438-3.341-9.846-8.372c-0.364-4.504,2.603-8.51,6.838-9.591L1807.705,2396.619z"/>
				</g>
			</g>
			<g>
				<g>
					<path style="fill:#000072;" d="M720.791,2185.142c5.862-10.056,13.987-16.774,22.646-21.77       c8.718-4.926,18.281-7.988,28.169-8.912c9.858-0.93,20.1,0.481,29.224,4.468c9.158,3.939,16.875,10.333,22.844,17.623       c2.522,3.079,2.07,7.62-1.008,10.142c-2.864,2.347-6.995,2.119-9.587-0.405l-0.237-0.229       c-5.339-5.188-11.462-9.106-18.081-11.127c-6.604-2.048-13.645-2.238-20.444-0.839c-6.792,1.388-13.354,4.336-18.896,8.347       c-5.522,3.96-10.049,9.204-12.119,14.083c-2.727,6.427-10.146,9.426-16.572,6.699c-6.426-2.726-9.426-10.146-6.699-16.572       c0.203-0.475,0.43-0.93,0.679-1.366L720.791,2185.142z"/>
				</g>
			</g>
			<g>
				<g>
					<path style="fill:#000072;" d="M786.523,2120.741c9.299-2.823,19.26-4.458,29.316-4.067       c10.032,0.321,20.103,2.709,29.043,7.035c8.977,4.296,16.702,10.361,23.271,17.078c6.741,6.65,11.785,14.366,16.638,21.996       c2.134,3.354,1.145,7.803-2.209,9.937c-3.123,1.987-7.195,1.266-9.465-1.55l-0.352-0.442       c-5.061-6.331-10.181-12.616-16.289-17.426c-5.974-4.934-12.461-8.925-19.314-11.339c-6.848-2.44-14.001-3.301-21.118-2.769       c-7.126,0.49-14.189,2.401-21.055,5.308c-6.426,2.72-13.838-0.284-16.558-6.709c-2.72-6.425,0.283-13.838,6.709-16.558       c0.41-0.173,0.823-0.323,1.238-0.45L786.523,2120.741z"/>
				</g>
			</g>
			<g style="opacity:0.3;">
				<g>
					<g>
						<path style="fill:#6B184E;" d="M612.492,1804.469c-0.126-1.247-0.178-2.532-0.404-3.765c-0.226-1.236-0.824-2.443-1.269-3.619        c-0.905-2.396-1.811-4.792-2.716-7.188c-2.069,0.57-4.138,1.141-6.207,1.711c1.628,4.268,3.243,8.541,4.861,12.813        c0.867,2.292,1.842,4.535,2.805,6.788c0.445,1.04,0.89,2.08,1.334,3.12c0.571,1.336,1.317,2.286,2.391,3.264        c2.219,2.022,6.048,0.668,6.041-2.502c-0.004-1.601-0.231-2.861-0.893-4.332c-0.463-1.028-0.941-2.05-1.412-3.075        c-0.975-2.123-1.935-4.247-2.999-6.327c-2.085-4.075-4.171-8.149-6.245-12.23c-0.787-1.549-2.966-1.995-4.403-1.155        c-1.579,0.923-1.94,2.846-1.155,4.403c1.155,2.291,2.31,4.582,3.465,6.872c0.595,1.181,1.104,2.502,1.927,3.539        c0.747,0.941,1.58,1.818,2.38,2.715C610.794,1806.403,612.62,1805.733,612.492,1804.469L612.492,1804.469z"/>
					</g>
				</g>
			</g>
		</g>
		<g>
			<g>
				<g>
					<path style="fill:#FFFFFF;" d="M2384.015,830.805c-130.164,2.988-234.86,111.503-233.366,241.692       c0.698,60.801,24.11,116.079,62.102,157.854c16.934,18.62,19.681,46.137,7.071,67.919l-41.46,71.618l107.176-63.105v0       c12.939-7.618,28.387-9.847,42.903-6.008c19.157,5.067,39.251,7.818,59.969,7.92       c130.588,0.639,238.577-105.402,240.163-235.982C2630.216,937.373,2519.441,827.696,2384.015,830.805z"/>
				</g>
			</g>
			<g>
				<g>
					<path style="fill:#000072;" d="M2178.365,1385.507c-4.023,0-8.003-1.55-11.006-4.534c-5.039-5-6.069-12.766-2.515-18.909       l41.46-71.619c9.302-16.069,7.251-35.996-5.107-49.587c-41.953-46.13-65.449-105.859-66.162-168.184       c-1.597-138.794,109.937-254.299,248.623-257.485l0,0c69.736-1.533,135.459,24.514,185.005,73.533       c49.551,49.019,76.372,114.429,75.522,184.18c-1.68,138.884-115.781,251.404-254.6,251.414c-0.425,0-0.825,0-1.255-0.003       c-21.616-0.107-43.11-2.947-63.887-8.438c-10.327-2.734-21.626-1.14-30.981,4.365l-107.178,63.108       C2183.819,1384.799,2181.079,1385.507,2178.365,1385.507z M2384.37,846.42c-121.66,2.793-219.502,104.131-218.105,225.898       c0.63,54.665,21.24,107.058,58.037,147.524c21.553,23.699,25.186,58.362,9.033,86.255l-11.68,20.176l55.957-32.949       c16.494-9.714,36.475-12.505,54.819-7.646c18.218,4.814,37.075,7.305,56.055,7.4c122.266,0.408,222.983-98.347,224.468-220.554       c0.742-61.201-22.788-118.589-66.26-161.594C2503.223,867.926,2445.796,844.982,2384.37,846.42L2384.37,846.42z"/>
				</g>
			</g>
			<g style="opacity:0.3;">
				<g>
					<path style="fill:#000072;" d="M2628.243,1057.714c-0.13-2.623-0.3-5.235-0.513-7.835c-0.11-1.333-0.221-2.664-0.353-3.99       c-0.261-2.632-0.578-5.246-0.923-7.852c-0.15-1.128-0.272-2.265-0.438-3.388c-0.509-3.463-1.098-6.9-1.754-10.313       c-0.287-1.487-0.623-2.956-0.937-4.432c-0.429-2.022-0.87-4.039-1.35-6.042c-0.424-1.767-0.872-3.525-1.335-5.276       c-0.431-1.634-0.889-3.258-1.354-4.878c-0.547-1.902-1.089-3.807-1.681-5.689c-0.355-1.13-0.75-2.242-1.121-3.364       c-1.452-4.381-3.015-8.711-4.709-12.976c-0.24-0.606-0.466-1.22-0.711-1.823c-0.961-2.363-1.973-4.699-3.008-7.024       c-0.313-0.703-0.626-1.405-0.945-2.105c-1.108-2.426-2.241-4.837-3.427-7.218c-0.092-0.185-0.19-0.367-0.282-0.552       c-5.412-10.802-11.61-21.142-18.53-30.936c11.832,28.826,18.228,60.465,17.824,93.666       c-1.355,111.57-80.411,205.164-184.848,229.67c-110.733,24.951-175.311,4.461-214.701-34.101       c-0.197-0.223-32.703-33.001-32.904-33.221c-6.59-7.246,3.923-19.631-1.747-27.649c0.002,0.004,0.004,0.008,0.006,0.012       c0.902,2.194,1.851,4.363,2.816,6.523c-0.018-0.021-0.033-0.039-0.051-0.06c10.433,23.385,24.485,44.798,41.485,63.491       c16.934,18.62,19.681,46.137,7.071,67.919l-41.46,71.618l107.176-63.106c12.939-7.619,28.387-9.847,42.902-6.008       c19.157,5.067,39.251,7.818,59.97,7.92c3.755,0.018,7.487-0.074,11.203-0.23c3.453-0.145,6.88-0.395,10.295-0.687       c0.514-0.044,1.034-0.064,1.547-0.111c3.133-0.289,6.239-0.676,9.337-1.086c0.782-0.104,1.573-0.177,2.353-0.289       c2.913-0.415,5.797-0.922,8.676-1.443c0.947-0.171,1.903-0.313,2.846-0.496c2.743-0.531,5.457-1.146,8.167-1.77       c1.056-0.243,2.121-0.46,3.172-0.718c2.604-0.638,5.178-1.353,7.749-2.077c1.13-0.318,2.269-0.613,3.392-0.947       c2.484-0.739,4.939-1.549,7.39-2.367c1.179-0.393,2.366-0.767,3.537-1.178c2.374-0.834,4.718-1.731,7.059-2.638       c1.215-0.471,2.438-0.926,3.644-1.416c2.27-0.922,4.51-1.902,6.745-2.891c1.241-0.549,2.488-1.088,3.717-1.657       c2.167-1.004,4.304-2.059,6.436-3.125c1.26-0.63,2.524-1.254,3.772-1.906c2.07-1.082,4.112-2.209,6.147-3.349       c1.265-0.709,2.531-1.414,3.782-2.145c1.977-1.155,3.927-2.351,5.868-3.56c1.266-0.789,2.531-1.578,3.781-2.389       c1.881-1.222,3.737-2.478,5.582-3.75c1.262-0.871,2.521-1.745,3.766-2.639c1.788-1.284,3.553-2.599,5.304-3.93       c1.249-0.95,2.492-1.906,3.722-2.88c1.696-1.343,3.371-2.711,5.031-4.098c1.234-1.032,2.459-2.073,3.672-3.129       c1.603-1.395,3.187-2.812,4.752-4.248c1.21-1.11,2.408-2.234,3.595-3.369c1.514-1.447,3.012-2.912,4.488-4.398       c1.18-1.188,2.344-2.392,3.5-3.604c1.422-1.492,2.831-2.998,4.215-4.526c1.148-1.267,2.275-2.553,3.396-3.844       c1.333-1.536,2.655-3.082,3.949-4.651c1.107-1.343,2.19-2.705,3.268-4.072c1.241-1.573,2.474-3.152,3.676-4.756       c1.066-1.423,2.104-2.868,3.138-4.314c1.149-1.606,2.294-3.216,3.405-4.851c1.017-1.498,2-3.019,2.983-4.541       c1.057-1.635,2.113-3.27,3.13-4.932c0.965-1.576,1.892-3.177,2.821-4.776c0.965-1.661,1.934-3.32,2.859-5.005       c0.907-1.651,1.77-3.328,2.639-5.002c0.872-1.68,1.751-3.356,2.584-5.059c0.844-1.727,1.639-3.481,2.443-5.23       c0.78-1.699,1.573-3.392,2.314-5.112c0.775-1.798,1.495-3.624,2.226-5.444c0.689-1.715,1.395-3.421,2.045-5.154       c0.701-1.87,1.342-3.769,1.997-5.66c0.598-1.725,1.217-3.441,1.775-5.184c0.624-1.945,1.18-3.919,1.754-5.886       c0.504-1.727,1.035-3.443,1.501-5.186c0.544-2.035,1.014-4.098,1.504-6.153c0.408-1.71,0.849-3.407,1.22-5.13       c0.461-2.144,0.841-4.316,1.244-6.48c0.311-1.669,0.66-3.325,0.935-5.005c0.375-2.287,0.66-4.602,0.969-6.91       c0.213-1.589,0.469-3.165,0.65-4.764c0.292-2.589,0.486-5.207,0.694-7.82c0.107-1.341,0.263-2.669,0.348-4.016       c0.249-3.974,0.403-7.973,0.452-11.996c0.046-3.829-0.025-7.631-0.156-11.417       C2628.374,1060.097,2628.302,1058.907,2628.243,1057.714z"/>
				</g>
			</g>
			<g>
				<g>
					<path style="fill:#000072;" d="M2333.833,1177.748c-11.138,0-22.617-1.089-31.543-8.508       c-12.695-10.562-13.618-28.591-8.848-42.917c-16.436,4.973-33.975,6.16-53.311,0.549c-4.141-1.201-6.523-5.535-5.322-9.675       c1.201-4.145,5.562-6.518,9.678-5.325c20.771,6.025,39.395,2.561,57.354-5.342c-6.235-2.622-10.742-5.979-13.74-10.234       c-0.254-0.359-0.493-0.72-0.723-1.084c-4.648-0.022-9.287-0.374-13.896-1.074c-19.019-2.891-32.134-12.681-35.083-26.189       c-2.417-11.038,2.681-21.543,7.397-29.458c3.784-6.353,7.935-12.483,12.397-18.357c-5.654-31.555,9.243-65.42,36.099-78.098       c11.826-5.583,24.99-7.097,36.396-8.079c12.417-1.065,25.591-1.709,38.184,3.003c6.211,2.324,11.675,5.728,16.621,9.609       c11.294-8.025,23.276-14.878,34.736-21.138c15.825-8.648,32.734-15.718,49.224-8.953c10.347,4.243,17.227,13.01,22.754,20.054       c2.49,3.176,5.078,6.47,7.627,9.893c12.28,2.61,23.271,8.557,31.27,17.422c21.123,23.428,16.108,58.374,2.515,80.928       c-0.278,0.459-0.562,0.918-0.845,1.375c2.603,3.225,3.716,7.019,3.032,10.991c-1.094,6.362-6.367,9.836-8.618,11.321       c-4.585,3.022-9.292,5.74-14.102,8.188l2.681,2.761c12.017,12.388,15.654,23.645,10.815,33.457       c-2.832,5.735-8.14,9.165-11.309,11.211c-53.257,34.429-117.515,53.489-180.938,53.67       C2334.165,1177.748,2333.999,1177.748,2333.833,1177.748z M2315.171,1117.514c-2.378,3.816-4.502,7.622-6.123,11.616       c-3.833,9.443-3.95,22.129,3.232,28.103c5.22,4.341,13.652,5.071,22.007,4.895c18.54-0.051,37.148-1.795,55.513-5.134       c-10.2-3.286-19.424-9.219-26.44-18.354c-6.909-8.992-10.225-19.099-11.245-29.321c-9.297,2.119-18.066,2.954-26.377,2.515       C2322.251,1113.829,2318.736,1115.734,2315.171,1117.514z M2370.283,1119.279c1.309,3.457,3.096,6.765,5.459,9.846       c15.088,19.639,47.046,18.877,69.248,6.787c17.754-9.675,31.421-24.995,37.876-42.334c-2.549,1.777-5.078,3.516-7.563,5.229       c-17.773,12.231-37.92,26.091-61.816,29.473C2399.326,1130.275,2382.998,1127.399,2370.283,1119.279z M2501.031,1086.647       c-0.615,3.066-1.411,6.111-2.388,9.111c-3.467,10.637-9.141,20.686-16.548,29.595c8.467-4.426,16.714-9.226,24.702-14.39       c2.461-1.589,4.932-3.286,5.781-5.01c1.558-3.159-1.289-8.725-8.022-15.669L2501.031,1086.647z M2373.902,1102.391       c9.448,8.687,24.517,12.249,37.397,10.425c14.448-2.043,28.022-9.119,40.552-17.09c-7.1,1.238-14.087,2.234-20.84,3.098       c-17.266,2.21-36.309,3.992-55.869,3.066C2374.727,1102.059,2374.317,1102.228,2373.902,1102.391z M2309.673,1092.828       c0.796,0.293,1.592,0.564,2.397,0.82c0.332-0.537,0.664-1.074,0.986-1.611       C2311.934,1092.318,2310.806,1092.584,2309.673,1092.828z M2369.131,1085.846c1.104,0.09,2.207,0.173,3.311,0.244       c4.873-2.109,9.912-4.548,15.127-7.314c1.392-0.737,2.778-1.484,4.155-2.241c-2.026,0.217-4.072,0.396-6.123,0.532       c-1.729,0.117-3.452,0.2-5.161,0.249c-3.628,2.085-7.261,4.297-10.879,6.575       C2369.414,1084.537,2369.268,1085.192,2369.131,1085.846z M2438.633,1065.487c-10.073,7.202-20.503,13.928-31.216,20.134       c7.432-0.584,14.673-1.401,21.611-2.29c18.145-2.319,37.979-5.623,56.968-12.18l-16.826-17.346       C2459.146,1057.899,2448.99,1061.94,2438.633,1065.487z M2340.781,1080.919c1.113,0.31,2.227,0.603,3.345,0.884       c0.264-0.173,0.527-0.349,0.796-0.525c1.353-0.894,2.71-1.792,4.077-2.691c0.054-0.981,0.132-1.965,0.239-2.956       C2346.504,1077.516,2343.672,1079.283,2340.781,1080.919z M2264.116,1038.712c-1.699,2.546-3.335,5.137-4.902,7.771       c-3.447,5.784-6.802,12.464-5.562,18.13c1.787,8.171,12.627,12.632,22.173,14.084c2.568,0.388,5.146,0.652,7.729,0.791       c0.161-4.326,1.074-8.352,2.007-11.499C2276.416,1059.415,2269.107,1049.518,2264.116,1038.712z M2303.965,1063.104       c5.103,3.843,10.713,7.276,16.743,10.232c0.317-0.122,0.625-0.244,0.938-0.371c0.825-2.522,1.572-5.083,2.261-7.686       c-5.84-3.02-11.245-6.57-16.133-10.62C2306.411,1057.433,2305.142,1060.25,2303.965,1063.104z M2397.378,1025.109       c-7.598,11.238-14.229,23.13-19.829,35.584c-0.068,0.146-0.132,0.293-0.2,0.442c20.518-11.326,45.747-22.268,72.632-27.114       l-27.124-27.966c-0.918-0.176-1.836-0.347-2.754-0.508C2412.075,1011.522,2404.478,1018.065,2397.378,1025.109z        M2499.712,1048.998c0.898,3.235,1.597,6.541,2.08,9.893c2.612-2.451,5.132-4.99,7.52-7.627       C2506.123,1050.353,2502.925,1049.603,2499.712,1048.998z M2342.056,1056.149c1.67,0.586,3.369,1.128,5.098,1.626       c9.746-8.103,17.803-18.147,23.169-29.602c4.219-9.016,5.522-16.355,3.994-22.437c-0.342-1.365-0.942-2.734-1.733-4.006       c-5.386-0.149-10.781-0.249-16.177-0.303c-6.289,13.184-9.102,27.795-12.075,43.23       C2343.594,1048.468,2342.857,1052.306,2342.056,1056.149z M2275.127,1023.898c0.283,0.942,0.596,1.877,0.933,2.808       c3.32,9.214,8.672,17.781,15.664,25.366c1.406-3.089,2.905-6.133,4.502-9.131c-0.078-0.1-0.156-0.2-0.239-0.3       c-8.169-10.332-11.577-21.423-9.702-31.113C2282.383,1015.482,2278.657,1019.608,2275.127,1023.898z M2315.552,1040.751       c3.599,3.252,7.593,6.16,11.929,8.699c0.513-2.559,1.011-5.142,1.514-7.746c1.587-8.252,3.203-16.643,5.415-24.924       C2327.329,1024.091,2320.996,1032.145,2315.552,1040.751z M2505.855,1034.303c4.531,0.979,9.053,2.224,13.555,3.76       c0.278-0.449,0.557-0.901,0.83-1.355c11.06-18.34,14.355-45.664-0.737-62.402c-1.606-1.785-3.413-3.408-5.381-4.861       c1.074,2.288,2.051,4.629,2.915,7.024c6.543,18.13,4.937,36.838-4.292,50.046       C2510.703,1029.432,2508.374,1032.008,2505.855,1034.303z M2327.466,1001.664c-14.336,0.808-22.852,4.519-25.347,11.055       c-2.002,5.242,0.444,11.301,2.935,15.562C2311.563,1018.649,2319.092,1009.701,2327.466,1001.664z M2481.48,1017.372       c2.358,2.388,4.58,4.958,6.646,7.732c0.498,0.669,0.986,1.345,1.455,2.031c4.189-2.69,7.695-5.752,10.361-9.568       c6.328-9.053,7.227-22.434,2.407-35.796c-2.661-7.373-6.719-14.263-11.323-20.874c-7.041-0.749-14.507-0.159-21.797,1.887       c-10.327,2.903-20.581,8.418-30.996,16.711c14.336-3.638,28.53-1.646,37.695,10.178       C2481.695,997.113,2483.594,1007.267,2481.48,1017.372z M2455.391,1017.167l6.616,6.819c0.396-0.61,0.771-1.231,1.128-1.86       C2460.679,1020.311,2458.091,1018.663,2455.391,1017.167z M2389.571,1002.357c0.43,1.802,0.718,3.64,0.869,5.515       c1.299-1.763,2.622-3.508,3.975-5.242C2392.783,1002.528,2391.172,1002.438,2389.571,1002.357z M2442.051,994.725       c8.545,2.637,16.763,6.113,24.282,10.715c-0.449-2.244-1.328-4.365-2.749-6.201       C2458.77,993.031,2450.528,992.54,2442.051,994.725z M2345.264,948.822c-4.404,0-8.867,0.32-13.237,0.696       c-10.518,0.903-21.577,2.161-31.064,6.641c-16.782,7.922-27.397,26.89-28.359,47.058       c23.193-24.385,52.427-42.991,84.497-53.381C2353.281,949.091,2349.297,948.822,2345.264,948.822z M2379.688,986.322       c2.397,0.083,4.79,0.176,7.178,0.276c5.913,0.249,12.056,0.62,18.301,1.218l-14.829-15.288       c-1.812-1.87-3.682-3.796-5.615-5.703c-5.264,4.346-10.205,9.021-14.644,14.092       C2373.628,982.003,2376.88,983.903,2379.688,986.322z M2364.727,963.807c-17.554,5.371-34.224,13.401-49.414,23.633       c4.8-0.928,10.161-1.443,16.084-1.543c5.151-0.088,10.327-0.132,15.508-0.134c0.137-0.093,0.278-0.185,0.42-0.278       C2352.241,977.467,2358.159,970.299,2364.727,963.807z M2397.349,957.355c1.436,1.448,2.832,2.888,4.199,4.299l15.352,15.83       c15.991-15.393,31.797-25.151,48.101-29.734c4.707-1.323,9.448-2.173,14.141-2.568c-4.429-5.632-9.443-11.724-15.615-14.255       c-10.42-4.275-23.374,1.421-35.806,8.21C2417.691,944.613,2407.241,950.563,2397.349,957.355z"/>
				</g>
			</g>
		</g>
	</g>
</g>
</svg>