<svg xmlns="http://www.w3.org/2000/svg" xmlns:xlink="http://www.w3.org/1999/xlink" version="1.1" x="0px" y="0px" style="enable-background:new 0 0 750 500;" xml:space="preserve" viewBox="95.68 66.31 542.64 389.27">
<g id="BACKGROUND">
	<g style="opacity:0.76;">
		<path style="fill:#FFFBDC;" d="M535.333,75.82c10.685-4.933,24.505-1.805,32.023,7.249c7.519,9.053,8.057,23.213,1.246,32.81    c16.401-8.149,37.542-5.573,51.506,6.276c13.964,11.848,19.949,32.288,14.58,49.797c-5.369,17.509-21.783,31.08-39.989,33.064    c6.394,10.586,6.915,24.165,2.657,35.775c-4.259,11.611-12.935,21.292-23.263,28.095c-15.643,10.306-35.344,14.259-53.753,10.788    c-18.408-3.471-35.316-14.329-46.132-29.624c-14.461,16.43-39.637,22.382-59.925,14.167c-20.288-8.215-34.229-30.007-33.184-51.87    c-12.172-1.953-19.107-15.145-21.419-27.254c-3.815-19.984,0.375-42.191,14.289-57.033c13.914-14.843,38.287-20.143,55.54-9.362    c-2.762-15.631,3.552-32.538,15.883-42.533c12.331-9.995,30.18-12.671,44.9-6.733c5.669,2.287,10.797,5.83,15.058,10.202    c5.623,5.771,10.305,15.016,11.608,22.826C515.44,93.346,527.879,79.261,535.333,75.82z"/>
		<path style="fill:#FFFBDC;" d="M269.131,180.131c5.121-3.22,11.44-4.385,17.583-2.523c2.648,0.803,5.138,2.146,7.204,3.993    c6.648,5.945,8.459,16.628,4.142,24.432c2.672-7.369,11.567-12.107,18.95-9.472c7.383,2.635,11.149,12.787,6.677,19.225    c8.305-8.066,23.407-5.762,30.71,3.222c7.303,8.983,7.377,22.397,2.318,32.811c-5.067,10.429-14.912,18.415-26.161,21.222    c-11.25,2.807-23.693,0.382-33.065-6.444c-4.403,7.452-12.214,12.795-20.754,14.199c-8.541,1.404-17.651-1.159-24.207-6.809    c-4.116,9.55-14.272,16.161-24.67,16.06c-10.398-0.101-20.424-6.91-24.352-16.538c-6.072,7.925-18.678,8.682-27.044,3.233    c-8.367-5.449-12.764-15.572-13.631-25.518c-1.277-14.648,4.996-30.349,17.523-38.049c12.526-7.7,31.039-5.27,39.422,6.81    c-3.81-10.723,2.389-23.942,13.07-27.87c4.153-1.527,8.734-1.532,12.974-0.361c2.801,0.773,5.138,2.456,7.071,4.589    c0.984,1.086,1.863,2.26,2.724,3.444c0.511,0.702,1.748,3.142,2.599,3.184c-0.07-4.564,0.22-8.75,2.194-12.967    C262.336,185.879,265.419,182.465,269.131,180.131z"/>
		<path style="fill:#FFFBDC;" d="M588.729,285.506c0.103-0.09,0.208-0.177,0.313-0.262c11.76-9.482,26.741,3.682,20.385,16.816    c8.477-4.024,19.628-1.195,25.161,6.383c5.533,7.579,4.83,19.062-1.585,25.91c-6.415,6.848-17.829,8.297-25.752,3.269    c-4.183,5.034-9.15,9.705-15.314,11.906c-6.164,2.201-13.725,1.438-18.3-3.242c-4.576-4.68-4.625-13.52,0.776-17.216    c-7.224,0.596-14.519-4.443-16.518-11.411c-1.999-6.967,1.513-15.107,7.956-18.434c7.576-3.91,14.158,1.346,20.326,5.4    C581.172,299.575,583.778,289.808,588.729,285.506z"/>
		<path style="fill:#FFFBDC;" d="M287.925,84.914c4.292-3.923,10.313-5.863,15.701-1.905c4.793,3.521,6.467,10.679,3.732,15.96    c7.077-4.155,17.206-1.866,21.808,4.929c4.602,6.795,2.97,17.05-3.514,22.08c-6.484,5.031-16.823,4.063-22.261-2.084    c-3.866,6.267-8.448,13.071-15.613,14.77c-5.34,1.266-11.614-1.217-13.829-6.238c-2.215-5.021,0.895-11.914,6.311-12.802    c-4.969,1.868-11.148-0.467-13.639-5.155c-7.23-13.603,9.013-18.317,18.552-12.797C279.678,98.494,282.335,90.023,287.925,84.914z    "/>
	</g>
	<g>
		<g>
			<path style="fill:#513B2F;" d="M156.25,282c0,1.841-1.492,3.333-3.333,3.333c-1.841,0-3.333-1.492-3.333-3.333     s1.492-3.333,3.333-3.333C154.758,278.667,156.25,280.159,156.25,282z"/>
			<circle style="fill:#513B2F;" cx="158.25" cy="306" r="7.333"/>
			<path style="fill:#513B2F;" d="M143.583,292.333c0,3.498-2.835,6.333-6.333,6.333c-3.498,0-6.333-2.836-6.333-6.333     c0-3.498,2.836-6.333,6.333-6.333C140.748,286,143.583,288.836,143.583,292.333z"/>
		</g>
		<g>
			<path style="fill:#513B2F;" d="M517.852,312.786c1.255-1.347,3.365-1.421,4.711-0.165c1.347,1.255,1.421,3.365,0.165,4.711     c-1.255,1.347-3.365,1.421-4.711,0.165C516.671,316.242,516.597,314.132,517.852,312.786z"/>
			<path style="fill:#513B2F;" d="M538.118,298.867c-2.762,2.963-7.402,3.125-10.365,0.364c-2.963-2.762-3.126-7.402-0.364-10.365     c2.762-2.963,7.402-3.125,10.365-0.364C540.717,291.264,540.88,295.904,538.118,298.867z"/>
			<path style="fill:#513B2F;" d="M534.163,313.864c2.385-2.559,6.393-2.699,8.951-0.314c2.559,2.385,2.699,6.393,0.314,8.951     c-2.385,2.559-6.393,2.699-8.951,0.314C531.919,320.43,531.778,316.423,534.163,313.864z"/>
		</g>
	</g>
	<ellipse style="fill:#513B2F;" cx="356.005" cy="386.29" rx="260.324" ry="69.29"/>
</g>
<g id="OBJECTS">
	<g>
		<g>
			<path style="fill:#CC8837;" d="M234,316.75L219.25,337c-5.75-4.75-16.75-20.25-11-47.5s27-36.25,29.25-31.75s-13,9.5-12.75,31     c0.12,10.05,2.15,16.82,4.27,21.18C231.45,314.91,234,316.75,234,316.75z"/>
			<path style="opacity:0.15;fill:#770800;" d="M213.67,296.67c-0.34,28,4.66,24.33,8,20.33c1.35-1.62,3.95-4.55,7.35-7.07     c2.43,4.98,4.98,6.82,4.98,6.82L219.25,337c-5.75-4.75-16.75-20.25-11-47.5s27-36.25,29.25-31.75     C230.125,255.438,214,268.67,213.67,296.67z"/>
		</g>
		<g>
			<path style="fill:#CC8837;" d="M539.38,404.64c-3.53,5-8.06,9.17-12.13,12.11c-9,6.5-18,6.75-25.75,5.5c0,0-5,2-9.75,0.25     c0,0-0.4,0.2-1.11,0.42c-1.53,0.47-4.54,1.03-8.03-0.19c-0.46-0.15-0.92-0.34-1.39-0.57c-0.39-0.19-0.79-0.4-1.19-0.65     c-0.01,0-0.02,0-0.03-0.01c0,0-0.01,0.08-0.04,0.23c-0.29,1.42-2.24,8.91-11.96,10.27c0,0-9.25,8.25-17.75,3.5     c0,0-11,9.25-26.25,4s-19-10.75-34.75-11.5s-38,4-49.75-6c0,0-16.5,9.25-37.5,6.25c-0.6-0.09-1.19-0.18-1.77-0.28     c-0.71-0.12-1.4-0.25-2.09-0.39c-0.43-0.08-0.87-0.17-1.29-0.27c-0.83-0.18-1.65-0.38-2.46-0.59c-0.53-0.14-1.06-0.28-1.58-0.43     c-0.4-0.11-0.79-0.23-1.17-0.34c-0.52-0.16-1.03-0.32-1.54-0.49c-2.4-0.78-4.66-1.65-6.76-2.55C272.89,418.4,266.5,413,266.5,413     s-0.21,0.07-0.58,0.17c-10.87,6.82-41.98,8.95-64.15-0.19c-6.66-2.75-12.52-6.52-16.77-11.48c-21-24.5,2.25-41.75,2.25-41.75     s-10.5-0.5-22.25,5.25s-23,9-26.75-0.25c0,0-7-3.75-2.75-12.75c0,0-2-3.25,3.5-9c2.78-2.91,8.45-3.19,15.65-3.28     c7.01-0.1,15.46,0,24.1-1.97c17.5-4,24.5-4,24.75,3.25s-5,17.75-5.25,18.75c-0.18,0.7,4.31,0.66,8.38-0.37     c0.04-0.01,0.09-0.02,0.13-0.03h0.01c0.39-2.5,0.95-5.03,1.67-7.61c1.06-3.75,2.48-7.59,4.31-11.49     c1.19-2.53,2.44-4.99,3.76-7.35c10.06-17.99,24.1-31.05,43.22-37.43c4.62-1.55,9.54-2.71,14.77-3.44c0.02,0,0.03,0,0.04-0.01     c1.12-0.16,2.25-0.3,3.4-0.41c0.35-0.04,0.7-0.08,1.06-0.11c20.13-1.87,40.85,6.39,56.8,12.25c9.6,3.53,17.47,6.19,22.45,5.25     c0.24-0.04,0.48-0.1,0.71-0.16c0.19-0.05,0.38-0.1,0.57-0.16c0.46-0.14,0.9-0.31,1.34-0.5c0.15-0.06,0.3-0.13,0.45-0.21     c0.14-0.07,0.28-0.14,0.41-0.21c0.16-0.08,0.31-0.16,0.46-0.25c0.41-0.24,0.82-0.5,1.22-0.78c0.15-0.1,0.29-0.2,0.44-0.31     c1.32-1,2.58-2.23,3.76-3.66c0.2-0.24,0.4-0.48,0.59-0.73c0.2-0.25,0.39-0.51,0.58-0.78c0.14-0.18,0.27-0.36,0.39-0.55     c1.95-2.79,3.64-6.11,5-9.72c0.13-0.33,0.25-0.67,0.37-1.01c0.13-0.34,0.25-0.67,0.36-1.02c0.12-0.35,0.23-0.69,0.34-1.04     c0.12-0.35,0.22-0.69,0.32-1.05c0-0.01,0.01-0.01,0.01-0.02c0.01-0.04,0.03-0.09,0.04-0.14c0.19-0.64,0.37-1.29,0.54-1.95     c0.41-1.57,0.76-3.16,1.04-4.76c0.09-0.45,0.17-0.91,0.23-1.36c0.05-0.28,0.09-0.57,0.13-0.85c0.08-0.55,0.15-1.1,0.21-1.65     c0.07-0.55,0.13-1.1,0.17-1.65c0.08-0.82,0.13-1.64,0.16-2.46c0.01-0.2,0.02-0.39,0.03-0.58c0.12-3.36-0.08-6.64-0.62-9.69     c0,0,7.98,2.52,20.74,3.5c11.04,0.85,25.65,0.56,41.76-3.5c14.29-3.6,25.37-7.16,33.46-10.1c7.44-2.7,12.36-4.88,14.92-6.09     c1.32-0.63,2.01-1,2.11-1.05c-0.04,0.1-0.34,0.86-0.71,2.29c-1.31,5.12-3.43,18.78,2.72,41.45c3.18,11.73,6.05,20.53,9.15,27.94     c4.73,11.22,10.02,19.22,17.85,29.31c13,16.75,23.5,23.75,25.75,38C546.48,391.3,543.67,398.58,539.38,404.64z"/>
			<g>
				<g>
					<path style="fill:#663A1A;" d="M138.25,364.75c1.33,0.051,2.542,0.262,3.775,0.435l1.841,0.292       c0.62,0.09,1.227,0.222,1.884,0.273c-0.583,0.361-1.269,0.454-1.916,0.507c-0.657,0.051-1.312,0.004-1.959-0.083       C140.591,365.96,139.322,365.547,138.25,364.75z"/>
				</g>
				<g>
					<path style="fill:#663A1A;" d="M135.5,352c0.374-0.67,0.871-1.288,1.478-1.771c0.592-0.506,1.273-0.902,1.986-1.207       c0.718-0.295,1.467-0.515,2.235-0.607c0.763-0.097,1.546-0.101,2.301,0.085c-1.464,0.455-2.829,0.873-4.146,1.443       c-0.665,0.264-1.302,0.587-1.936,0.928C136.771,351.203,136.176,351.614,135.5,352z"/>
				</g>
			</g>
			<path style="opacity:0.15;fill:#770800;" d="M266.25,403.32l-2.28,0.15C264.8,403.41,265.56,403.36,266.25,403.32z"/>
			<path style="opacity:0.15;fill:#770800;" d="M274.54,292.02c1.12-0.16,2.25-0.3,3.4-0.41c-0.16,0.25-0.27,0.39-0.27,0.39     S276.52,291.91,274.54,292.02z"/>
			<path style="opacity:0.15;fill:#770800;" d="M480.03,421.51c-0.01,0-0.02,0-0.03-0.01c0,0-0.01,0.08-0.04,0.23     c-0.29,1.42-2.24,8.91-11.96,10.27c0,0-9.25,8.25-17.75,3.5c0,0-11,9.25-26.25,4s-19-10.75-34.75-11.5s-38,4-49.75-6     c0,0-16.5,9.25-37.5,6.25c-0.6-0.09-1.19-0.18-1.77-0.28c-0.71-0.12-1.4-0.25-2.09-0.39c-0.43-0.08-0.87-0.17-1.29-0.27     c-0.83-0.18-1.65-0.38-2.46-0.59c-0.53-0.14-1.06-0.28-1.58-0.43c-0.4-0.11-0.79-0.23-1.17-0.34c-0.52-0.16-1.03-0.32-1.54-0.49     c-2.4-0.78-4.66-1.65-6.76-2.55C272.89,418.4,266.5,413,266.5,413s-0.21,0.07-0.58,0.17c-10.87,6.82-41.98,8.95-64.15-0.19     c20.28,7.48,50.73,1.52,57.48-9.48c11.575-18.863-2.21-43.06-2.57-43.82C273.5,368.34,274.17,392,274,400s-0.17,14.83,11.5,16.33     c0,0-0.02,0.07-0.04,0.18c6.38,0.72,13.98,1.18,22.21,0.82c23-1,25.33-6.66,25.33-6.66S330.67,400,337.67,392     s15-19.33,15.66-25.67c0.67-6.33,0.67-16,5.67-20c-5,5.34,1.33,13.34-3,26.34s-10.67,21.33-6.33,35.66c4.33,14.34,16.33,13,35,12     c18.66-1,34.33,13,47.33,16s20-4.66,20-4.66s11.67,3.66,18-5c0,0,8-1.28,10-10.61c0,0,0.05,0.71,0.1,1.62     C480.18,419.29,480.26,421.51,480.03,421.51z"/>
			<path style="opacity:0.15;fill:#770800;" d="M539.38,404.64c-3.53,5-8.06,9.17-12.13,12.11c-9,6.5-18,6.75-25.75,5.5     c0,0-5,2-9.75,0.25c0,0-5.25,2.688-11.875-0.813c0.375-5,0.572-8.348-1.688-12.688c-6-11.5-11.437-7.75-18.187-4.5     c-8.548,4.116-28.5-8-36-10s-10-0.5-12.5-10.5s-8-26.5-21-36.5s-17.5-5.5-21-5.5s-13.5-3-19-16.5c-5.36-13.15-5.02,5-14.7-21.75     c9.6,3.53,17.47,6.19,22.45,5.25c13.25-2.5,22.5-29,19.25-47.25c0,0,7.98,2.52,20.74,3.5c11.04,0.85,25.65,0.56,41.76-3.5     c14.29-3.6,25.37-7.16,33.46-10.1c7.44-2.7,12.36-4.88,14.92-6.09c0.48,0.41,0.95,0.82,1.4,1.24     c-1.31,5.12-3.43,18.78,2.72,41.45c3.18,11.73,6.05,20.53,9.15,27.94c-6.03,6.45-19.03,15.54-46.15,19.81     c-44.5,7-65.5-2.5-64.5,2s17.5,3,23.5,25.5s7,20,19,28.5s21,13.5,25,8.5s5-13,14.5-14s19.5,4.5,30-9c0,0-4,11.5-7.5,14     s-1,3-9.5,3.5s-4.5,11,1.5,11c0,0,4.5,7.5,20,9C522.93,416.49,530.43,415.51,539.38,404.64z"/>
			<g>
				<path style="fill:#663A1A;" d="M376.25,284c-1.2,5.402-2.355,10.814-3.83,16.161c-1.52,5.318-3.406,10.62-6.39,15.353      c-2.915,4.768-6.758,8.911-10.97,12.535c-4.218,3.641-8.834,6.751-13.379,9.896c-9.115,6.217-18.499,12.292-25.664,20.701      c-3.575,4.173-6.556,8.864-8.802,13.901c-2.279,5.027-3.875,10.335-5.215,15.703c1.119-5.418,2.625-10.772,4.767-15.901      c2.171-5.114,5.111-9.909,8.662-14.198c3.541-4.308,7.749-8.012,12.138-11.403c4.4-3.39,8.995-6.491,13.551-9.627      c4.567-3.124,9.165-6.186,13.351-9.761c4.197-3.554,7.948-7.632,10.912-12.252c3.013-4.602,4.961-9.815,6.572-15.084      C373.579,294.745,374.832,289.348,376.25,284z"/>
			</g>
			<path style="fill:#F9D36E;" d="M493.75,349.75c0.11,12.93-4.05,26.27-11.13,36.96c-1.31,1.98-2.72,3.87-4.22,5.65     c-2.28-0.66-3.32-1.56-6.9,0.39c-4.4,2.4-2.72,6.4-1.87,7.9c-0.21,0.17-0.43,0.33-0.64,0.48c-0.01-0.01-0.02,0-0.04,0     c-0.15,0.01-0.3,0.02-0.45,0.04c-0.16,0.01-0.33,0.04-0.5,0.08c-3.94,0.84-5.5,1.92-6.7,2.8c0,0.01-0.01,0.01-0.01,0.01     c-0.92,0.67-1.62,1.22-3.04,1.44c-1.22,0.19-3.68-0.22-6.86-1.07c-0.07-0.01-0.14-0.02-0.2-0.05c-3.77-1-8.53-2.59-13.48-4.48     c-0.05-0.02-0.1-0.04-0.15-0.06c-1.92-0.74-3.88-1.52-5.81-2.34c-2.76-1.17-5.28-2.14-7.51-2.93c-4.15-1.49-7.3-2.39-9.14-2.88     c-1.21-0.31-1.85-0.44-1.85-0.44s-0.14-1.25-0.56-3.35c0,0,0-0.01-0.01-0.02c-0.74-3.74-2.33-10.19-5.48-17.15     c-0.01-0.01-0.01-0.02-0.01-0.03c-2.02-4.47-4.69-9.15-8.19-13.45c-0.03-0.41-0.06-0.82-0.08-1.22     c-0.31-4.98-0.39-9.34-0.32-13.28c0.04-1.95,0.12-3.79,0.21-5.56c0.79-14.58,3.22-23.73,0.69-40.69     c-2.2-14.78-1.83-25.4-1.26-31.25c11.04,0.85,25.65,0.56,41.76-3.5c14.29-3.6,25.37-7.16,33.46-10.1     c5.08,8.06,5.51,18.47,9.29,36.1c2.89,13.48,6.5,23.46,8.78,36.43C492.8,331.4,493.66,339.55,493.75,349.75z"/>
			<path style="opacity:0.15;fill:#770800;" d="M399.5,296.5c-2.2-14.78-1.83-25.4-1.26-31.25c11.04,0.85,25.65,0.56,41.76-3.5     c14.29-3.6,25.37-7.16,33.46-10.1c5.08,8.06,5.51,18.47,9.29,36.1c2.89,13.48,6.5,23.46,8.78,36.43     c-7.67,4.61-19.1,9.16-36.03,11.82c-28.22,4.44-46.99,2.24-56.69,1.19C399.6,322.61,402.03,313.46,399.5,296.5z"/>
			<path style="opacity:0.15;fill:#770800;" d="M482.62,386.71c-1.31,1.98-2.72,3.87-4.22,5.65c-2.28-0.66-3.32-1.56-6.9,0.39     c-4.4,2.4-2.72,6.4-1.87,7.9c-0.21,0.17-0.43,0.33-0.64,0.48c-0.01-0.01-0.02,0-0.04,0c-0.15,0.01-0.3,0.02-0.45,0.04     c-0.16,0.01-0.33,0.04-0.5,0.08c-3.94,0.84-5.5,1.92-6.7,2.8c0,0.01-0.01,0.01-0.01,0.01c-0.42,0.14-0.85,0.29-1.29,0.44     c-2.31,0.77-5.31,0.62-8.61-0.07c-0.07-0.01-0.14-0.02-0.2-0.05c-4.26-0.9-9.02-2.66-13.48-4.48c-0.05-0.02-0.1-0.04-0.15-0.06     c-5.35-2.18-10.26-4.41-13.32-5.27c-0.08-0.03-0.16-0.05-0.24-0.07c-4.29-1.14-6.95-1.14-8.9-2.81c-0.93-0.79-1.7-1.95-2.41-3.79     c0,0,0-0.01-0.01-0.02c-0.4-1.05-0.79-2.33-1.18-3.88c-0.94-3.74-2.29-8.39-4.3-13.27c-0.01-0.01-0.01-0.02-0.01-0.03     c-2.02-4.89-4.69-10.01-8.27-14.67c-0.31-4.98-0.39-9.34-0.32-13.28c5.46,2.76,12.43,7.75,15.9,20.75c6,22.5,7,20,19,28.5     s21,13.5,25,8.5s5-13,14.5-14C476.15,386.17,479.36,386.55,482.62,386.71z"/>
		</g>
		<g>
			<path style="fill:#CC3A3A;" d="M373.083,280.167c0,0-4.012,8.967-5.979,21.441c-0.83,5.261,0.96,10.618,4.785,14.323     c8.277,8.018,26.804,19.811,62.86,17.236c36.851-2.632,55.47-14.066,63.52-20.973c3.428-2.941,5.006-7.478,4.097-11.902     c-1.059-5.152-3.11-12.757-6.95-20.625c0,0-1.333,12.333-33,20.5c-31.667,8.167-66.333,2.5-77.833-5.667     S373.083,280.167,373.083,280.167z"/>
			<path style="fill:#FF5555;" d="M377.417,278.833c0,0-1.073,3.635,1.521,7.323c4.298,6.11,26.646,18.677,57.479,16.344     c30.833-2.333,55.359-13.26,54.146-22.344l-0.656-3.5c0,0,4.094-1.203,5.594,3.297s-5.917,14.547-39.75,23.88     c-33.833,9.333-69.333-3.5-77-10.167c-7.667-6.667-8.208-16.443-0.875-18.276L377.417,278.833z"/>
		</g>
		<g>
			<g>
				<path style="fill:#663A1A;" d="M339.5,422c-2.439-2.774-4.507-5.934-5.779-9.454c-0.677-1.748-0.976-3.617-1.16-5.483      l-0.018-1.409l-0.005-0.706l0.068-0.702l0.137-1.405l0.278-1.383c0.761-3.701,2.529-7.096,4.607-10.184      c2.076-3.126,4.608-5.853,6.858-8.757c2.28-2.885,4.544-5.813,6.18-9.065c0.813-1.626,1.434-3.336,1.86-5.106      c0.424-1.77,0.696-3.587,0.933-5.412c0.421-3.66,0.906-7.397,2.173-10.917c0.64-1.75,1.487-3.454,2.703-4.883      c0.588-0.728,1.313-1.34,2.093-1.848c0.788-0.507,1.677-0.815,2.572-1.037c-1.788,0.497-3.359,1.592-4.46,3.052      c-1.128,1.441-1.887,3.136-2.445,4.875c-1.151,3.492-1.542,7.163-1.872,10.844c-0.336,3.679-1.043,7.453-2.741,10.835      c-1.669,3.381-3.939,6.361-6.215,9.284c-2.302,2.919-4.843,5.616-6.888,8.645c-0.527,0.748-0.98,1.542-1.475,2.311      c-0.462,0.787-0.862,1.607-1.297,2.409c-0.738,1.662-1.443,3.35-1.841,5.124l-0.302,1.329l-0.165,1.352l-0.083,0.677      l-0.012,0.681l-0.017,1.364c0.134,1.809,0.382,3.632,0.993,5.359C335.274,415.892,337.235,419.086,339.5,422z"/>
			</g>
			<g>
				<path style="fill:#663A1A;" d="M480,421.5c0.463-3.504-0.007-7.087-1.155-10.398c-1.163-3.278-3.026-6.463-5.866-8.446      c-1.41-0.963-3.149-1.48-4.802-1.129c-1.698,0.36-3.389,0.869-4.905,1.669c-0.762,0.4-1.447,0.903-2.161,1.438      c-0.709,0.542-1.587,1.02-2.514,1.182c-0.941,0.178-1.882,0.096-2.761-0.026c-0.892-0.119-1.767-0.292-2.637-0.482      c-3.47-0.79-6.847-1.863-10.195-3.007c-3.347-1.149-6.657-2.4-9.931-3.742c-3.266-1.356-6.513-2.68-9.844-3.823      c-3.315-1.151-6.684-2.234-10.076-3.016l-0.331-0.076l-0.048-0.337c-0.772-5.432-2.234-10.818-4.155-15.986      c-1.939-5.169-4.436-10.135-7.536-14.703c-0.788-1.132-1.634-2.223-2.468-3.324c-0.891-1.059-1.741-2.156-2.666-3.186      c-1.796-2.109-3.727-4.097-5.727-6.007c-2.016-1.89-4.171-3.655-6.57-5.033c-1.19-0.701-2.463-1.271-3.796-1.633      c-1.329-0.363-2.746-0.486-4.106-0.184c1.352-0.338,2.783-0.252,4.133,0.08c1.355,0.331,2.655,0.874,3.874,1.549      c2.458,1.328,4.677,3.052,6.757,4.903c2.074,1.861,4.035,3.85,5.874,5.94c0.946,1.023,1.815,2.111,2.727,3.164      c0.858,1.099,1.732,2.193,2.546,3.327c3.212,4.573,5.813,9.57,7.78,14.796c1.97,5.23,3.467,10.621,4.285,16.185l-0.379-0.413      c6.95,1.605,13.585,4.141,20.083,6.907c3.251,1.351,6.54,2.612,9.864,3.771c3.322,1.157,6.682,2.228,10.088,3.038      c0.851,0.2,1.707,0.381,2.562,0.507c0.86,0.133,1.706,0.209,2.504,0.071c1.65-0.213,2.841-1.692,4.507-2.479      c1.622-0.824,3.355-1.314,5.108-1.66c1.844-0.364,3.744,0.247,5.212,1.286c1.5,1.034,2.651,2.457,3.609,3.954      c0.943,1.516,1.674,3.15,2.219,4.839C480.178,414.392,480.553,418.008,480,421.5z"/>
			</g>
			<g>
				<path style="fill:#663A1A;" d="M413.25,391.25c-2.576-0.251-5.14-0.187-7.662,0.175c-2.52,0.371-5.003,0.97-7.446,1.726      c-2.452,0.731-4.861,1.627-7.319,2.426c-2.448,0.786-4.969,1.613-7.573,1.672c1.271-0.252,2.506-0.568,3.708-1.031      c1.213-0.411,2.408-0.886,3.602-1.365c2.387-0.966,4.805-1.894,7.29-2.659c2.488-0.744,5.047-1.335,7.653-1.531      c0.65-0.06,1.3-0.101,1.955-0.086c0.652,0.007,1.303-0.034,1.953,0.048c0.648,0.08,1.298,0.103,1.936,0.229      C411.987,390.976,412.621,391.109,413.25,391.25z"/>
			</g>
			<g>
				<path style="fill:#663A1A;" d="M450.25,435.5c1.08-1.497,1.564-3.303,1.784-5.092c0.246-1.794,0.225-3.62,0.005-5.41      c-0.236-1.787-0.626-3.558-1.289-5.219c-0.649-1.659-1.55-3.23-2.794-4.454c-1.233-1.258-2.806-2.01-4.588-2.244      c-1.773-0.334-3.575-0.455-5.37-0.354c-1.799,0.092-3.567,0.517-5.325,1.028c-1.762,0.48-3.574,1.013-5.424,0.996      c1.833-0.211,3.553-0.823,5.276-1.463c1.734-0.608,3.538-1.135,5.405-1.327c1.864-0.222,3.754-0.1,5.595,0.186      c1.866,0.202,3.79,1.088,5.133,2.467c1.364,1.373,2.318,3.065,2.973,4.828c0.643,1.771,1.038,3.618,1.169,5.481      c0.133,1.86,0.068,3.736-0.287,5.565C452.131,432.29,451.516,434.136,450.25,435.5z"/>
			</g>
			<g>
				<path style="fill:#663A1A;" d="M468,432c1.035-1.544,1.255-3.435,1.377-5.236c0.117-1.82,0.029-3.654-0.235-5.453      c-0.27-1.797-0.664-3.579-1.313-5.257c-0.635-1.673-1.508-3.281-2.769-4.473c-0.628-0.591-1.355-1.064-2.154-1.343      c-0.779-0.289-1.694-0.337-2.587-0.432c-1.793-0.14-3.597,0.054-5.37,0.427c-1.776,0.377-3.508,0.986-5.253,1.59      c-1.743,0.544-3.585,1.211-5.445,0.928c1.864,0.051,3.581-0.69,5.274-1.387c1.705-0.694,3.431-1.396,5.246-1.879      c1.808-0.498,3.712-0.712,5.604-0.625c0.936,0.08,1.89,0.12,2.854,0.455c0.945,0.322,1.801,0.87,2.517,1.538      c1.414,1.369,2.33,3.103,2.97,4.873c0.626,1.783,1.023,3.631,1.188,5.494c0.177,1.86,0.181,3.736-0.04,5.589      c-0.126,0.924-0.304,1.843-0.579,2.735C469.007,430.43,468.627,431.314,468,432z"/>
			</g>
			<g>
				<path style="fill:#663A1A;" d="M468,401.25c-0.898,0.527-1.752,1.016-2.53,1.628c-0.769,0.614-1.522,1.241-2.191,1.964      c-1.374,1.413-2.569,2.99-3.779,4.658c0.23-1.013,0.661-1.967,1.18-2.864c0.519-0.901,1.161-1.73,1.881-2.49      c0.727-0.754,1.571-1.403,2.484-1.919C465.955,401.702,466.979,401.38,468,401.25z"/>
			</g>
			<g>
				<path style="fill:#663A1A;" d="M491.75,422.5c-1.296-1.16-2.247-2.664-3.03-4.222c-0.747-1.581-1.299-3.25-1.705-4.952      c-0.77-3.406-0.982-6.996-0.162-10.477c0.434-1.714,1.174-3.459,2.564-4.735c0.693-0.626,1.558-1.086,2.475-1.289l1.303-0.236      c0.437-0.058,0.879-0.088,1.317-0.133c3.506-0.248,7.134,0.558,9.987,2.543c-1.52-0.821-3.169-1.362-4.851-1.631      c-1.674-0.306-3.388-0.354-5.066-0.146c-0.84,0.105-1.667,0.272-2.49,0.456c-0.767,0.194-1.465,0.591-2.037,1.135      c-1.157,1.092-1.845,2.665-2.232,4.277c-0.796,3.257-0.634,6.737-0.059,10.079c0.305,1.676,0.763,3.328,1.401,4.911      C489.786,419.673,490.621,421.186,491.75,422.5z"/>
			</g>
			<g>
				<path style="fill:#663A1A;" d="M476.75,406.75c-0.536-1.793-0.707-3.744-0.317-5.642c0.344-1.895,1.384-3.751,2.971-4.956      c1.607-1.143,3.439-1.909,5.393-2.05c1.929-0.165,3.919,0.305,5.453,1.399c-1.72-0.746-3.6-0.896-5.362-0.624      c-0.884,0.14-1.748,0.389-2.564,0.756c-0.828,0.33-1.618,0.8-2.311,1.312c-0.687,0.533-1.302,1.167-1.753,1.92      c-0.496,0.726-0.817,1.565-1.07,2.424c-0.251,0.862-0.395,1.767-0.456,2.683C476.651,404.888,476.671,405.816,476.75,406.75z"/>
			</g>
			<g>
				<path style="fill:#663A1A;" d="M503.75,374.5c-0.115,2.157-0.623,4.298-1.494,6.306c-0.897,2.001-2.233,3.782-3.756,5.353      c-3.086,3.14-7.093,5.258-11.311,6.44c-2.127,0.549-4.34,0.855-6.568,0.649c-1.113-0.099-2.218-0.398-3.24-0.756      c-1.025-0.359-1.966-0.641-2.96-0.469c-0.987,0.158-1.975,0.587-2.897,1.085c-0.915,0.483-1.728,1.17-2.213,2.066      c-0.52,0.881-0.632,1.968-0.472,3.007c0.173,1.042,0.571,2.057,1.114,2.986l0,0.001L470,401.25l-0.054-0.078l0,0      c-0.637-0.872-1.125-1.866-1.373-2.94c-0.242-1.065-0.215-2.254,0.297-3.285c0.499-1.033,1.379-1.83,2.339-2.391      c0.946-0.561,1.944-1.059,3.081-1.295c0.566-0.115,1.172-0.126,1.746-0.032c0.576,0.096,1.107,0.277,1.617,0.441      c1.016,0.338,2.012,0.591,3.051,0.67c2.077,0.165,4.198-0.157,6.228-0.707c4.089-1.061,7.954-3.117,11.033-6.022      c1.533-1.451,2.893-3.12,3.854-5.021C502.812,378.706,503.412,376.634,503.75,374.5z"/>
			</g>
			<g>
				<path style="fill:#663A1A;" d="M266.5,412.833c1.09-0.641,1.849-1.678,2.445-2.749c0.605-1.079,1.023-2.254,1.343-3.449      c0.664-2.386,0.981-4.862,1.098-7.338c0.227-4.957-0.219-9.945-1.265-14.794c-1.004-4.858-2.64-9.592-4.981-13.964      c-1.178-2.18-2.56-4.254-4.168-6.144c-1.584-1.913-3.428-3.611-5.472-5.061c2.169,1.261,4.107,2.906,5.839,4.736      c1.71,1.855,3.19,3.918,4.473,6.094c2.529,4.383,4.19,9.214,5.287,14.133c0.982,4.945,1.449,10.014,1.052,15.051      c-0.214,2.512-0.62,5.022-1.397,7.431c-0.399,1.199-0.898,2.373-1.583,3.441C268.506,411.282,267.645,412.287,266.5,412.833z"/>
			</g>
		</g>
		<g>
			<path style="fill:#F9D36E;" d="M417,283.125c0,0,4.125,7.375,19.25,6.625s19.5-10.375,19.5-10.375S445.25,271,432.625,274     S417,283.125,417,283.125z"/>
			<path style="fill:#F9D36E;" d="M549.5,277.25c-8.75,8.5-30.75-6.5-40.5-15s-8.5-15-11.25-20.25c0,0-0.06,0.05-0.16,0.15     c-1.05,0.93-6.81,6.43-11.34,16.85c-5,11.5-8.31,19.41-16.87,22c-14.88,4.5-23.63-5-33.13-4s-13,8.75-26,9.75     s-17.75-12.5-24-17.75c-6.08-5.11-11.45-6.43-11.74-6.49c-0.01-0.01-0.01-0.01-0.01-0.01s-1.75,12.25-6.5,23.5     c-7.17,16.98-25.5,32-34.5,25.25s1.5-15.25-10.75-36s-19.25-38.25-14.25-65s19.75-41.5,28-54.25s17.25-25.25,28.75-20.5     c2.86,1.18,15-10,34.25-16c0,0,7.73-12.09,17.01-17.03c1.14-0.61,2.31-1.11,3.49-1.47c1.6-0.48,2.77-0.61,3.59-0.46     c0.39,0.06,0.7,0.19,0.94,0.37c2.73,2.02-2.91,10.57-4.28,14.09c0,0,7-7.75,15.25-9.25s4,4,0.25,9.5c0,0,2.4-0.2,6.12-0.04     c6.48,0.28,16.99,1.64,25.88,7.04c0,0,2.25,1.25,8.75,0.25S488,122,501,135.75s23,19,32.25,32.25s17,22,15.5,52.5     c-0.79,16.02,1.87,28.52,3.31,38.01C553.36,267.09,553.65,273.21,549.5,277.25z"/>
			<path style="fill:#CC8837;" d="M409.75,232.75c-16.5,10.5-25.5,13.75-41,7.75c0,0,6.66,8.03,5.76,22.01     c-0.01-0.01-0.01-0.01-0.01-0.01s-1.75,12.25-6.5,23.5c-7.17,16.98-25.5,32-34.5,25.25s1.5-15.25-10.75-36s-19.25-38.25-14.25-65     s19.75-41.5,28-54.25s17.25-25.25,28.75-20.5c2.86,1.18,15-10,34.25-16c0,0,19.75,12.75,23.5,48S426.25,222.25,409.75,232.75z"/>
			<path style="opacity:0.15;fill:#770800;" d="M424.5,101c-0.31-0.18-0.61-0.33-0.91-0.46c0.39,0.06,0.7,0.19,0.94,0.37     C424.51,100.97,424.5,101,424.5,101z"/>
			<path style="opacity:0.15;fill:#770800;" d="M549.5,277.25c-8.75,8.5-30.75-6.5-40.5-15s-8.5-15-11.25-20.25     c0,0-0.06,0.05-0.16,0.15c-1.05,0.93-6.81,6.43-11.34,16.85c-5,11.5-8.31,19.41-16.87,22c-14.88,4.5-23.63-5-33.13-4     s-13,8.75-26,9.75s-17.75-12.5-24-17.75c-6.08-5.11-11.45-6.43-11.74-6.49c-0.01-0.01-0.01-0.01-0.01-0.01s-1.75,12.25-6.5,23.5     c-7.17,16.98-25.5,32-34.5,25.25s1.5-15.25-10.75-36s-19.25-38.25-14.25-65s19.75-41.5,28-54.25s17.25-25.25,28.75-20.5     c2.86,1.18,15-10,34.25-16c0,0,7.73-12.09,17.01-17.03c-4.18,5.04-7.18,16.37-15.51,23.03c-12.5,10-26,9-36.5,37     s-1,58.5,10.5,73.5s10,20.5,20.5,34.5s33,11,41,2c0,0,10,8.5,27,3s23.5-20,27-25s-5.5-8,1-33.5s3.5-62.49-10.49-79.49     c0.44,0.26,14.59,8.77,20.99,26.49c6.5,18,4,45,11.5,72s37,43.5,38.5,23c0.01-0.17,0.03-0.33,0.06-0.49     C553.36,267.09,553.65,273.21,549.5,277.25z"/>
			<path style="fill:#CC8837;" d="M549.5,277.25c-8.75,8.5-30.75-6.5-40.5-15s-8.5-15-11.25-20.25c0,0-0.06,0.05-0.16,0.15     c-0.45-2.68-1.44-5.2-1.59-8.4c-0.25-5.5,1.5-11.75,1.5-11.75s-3.12,2.63-8.01,5.35c-8.14,4.53-21.17,9.28-32.74,2.4     c-18.5-11-21.5-29.75-23-64.75c-1.4-32.63,6.98-47.88,8.12-49.79c6.48,0.28,16.99,1.64,25.88,7.04c0,0,2.25,1.25,8.75,0.25     S488,122,501,135.75s23,19,32.25,32.25s17,22,15.5,52.5c-0.79,16.02,1.87,28.52,3.31,38.01     C553.36,267.09,553.65,273.21,549.5,277.25z"/>
			<path style="opacity:0.15;fill:#770800;" d="M549.5,277.25c-8.75,8.5-30.75-6.5-40.5-15s-8.5-15-11.25-20.25     c0,0-0.06,0.05-0.16,0.15c-0.45-2.68-1.44-5.2-1.59-8.4c-0.25-5.5,1.5-11.75,1.5-11.75s-3.12,2.63-8.01,5.35     c0.36-2.96,1-6.38,2.01-10.35c6.5-25.5,3.5-62.49-10.49-79.49c0.44,0.26,14.59,8.77,20.99,26.49c6.5,18,4,45,11.5,72     s37,43.5,38.5,23c0.01-0.17,0.03-0.33,0.06-0.49C553.36,267.09,553.65,273.21,549.5,277.25z"/>
			<g>
				<g>
					<path style="fill:#663A1A;" d="M374.5,262.5c0.428-4.827-0.32-9.699-2.095-14.162c-1.707-4.502-4.324-8.586-6.886-12.675       c-2.593-4.077-5.132-8.232-7.188-12.65c-2.08-4.408-3.541-9.103-4.51-13.867c-0.951-4.773-1.468-9.62-1.649-14.474       c-0.187-4.854,0.025-9.727,0.66-14.542c0.633-4.813,1.639-9.588,3.217-14.184c1.615-4.568,3.809-8.999,6.95-12.696       c-2.96,3.836-5.038,8.265-6.486,12.852c-1.47,4.588-2.383,9.339-2.918,14.12c-1.08,9.563-0.696,19.305,1.204,28.724       c0.929,4.715,2.333,9.328,4.356,13.687c1.988,4.377,4.522,8.486,7.015,12.628c2.483,4.139,5.055,8.306,6.691,12.906       C374.506,252.744,375.154,257.697,374.5,262.5z"/>
				</g>
				<g>
					<path style="fill:#663A1A;" d="M497.75,242c-1.516-4.49-1.715-9.333-1.298-14.039c0.466-4.719,1.45-9.351,2.273-13.99       c0.826-4.639,1.591-9.283,1.92-13.967c0.336-4.682,0.317-9.381-0.164-14.056c-0.848-9.345-2.911-18.61-6.401-27.337       c-1.73-4.366-3.815-8.598-6.31-12.583c-2.47-3.999-5.383-7.736-8.769-11.027c7.072,6.31,12.137,14.611,15.792,23.32       c3.672,8.751,5.75,18.112,6.683,27.537c0.455,4.718,0.446,9.492,0.075,14.215c-0.377,4.728-1.127,9.414-2.074,14.041       c-0.917,4.632-1.978,9.23-2.54,13.899C496.363,232.667,496.453,237.446,497.75,242z"/>
				</g>
			</g>
			<path style="fill:#663A1A;" d="M436.125,267.75c6.375,0,11.375-8.125,11.375-8.125S441.125,253,444.375,251     s4.625,7.25,4.625,7.25s8.875-6.375,9.125-13.625s-13.875-9.75-25.875-8.625c-11.332,1.062-21.625,4.125-18.5,13.625     c2.068,6.288,9.375,10,9.375,10s0.125-8.375,3.5-8.125s-1.75,9.75-1.75,9.75S429.625,267.75,436.125,267.75z"/>
			<g>
				<path style="fill:#663A1A;" d="M436.375,268.875c0.494,1.326,0.624,2.701,0.633,4.07c-0.025,1.366-0.185,2.758-0.758,4.055      c-0.215-1.393-0.239-2.717-0.242-4.063C436.033,271.594,436.082,270.254,436.375,268.875z"/>
			</g>
			<g>
				<path style="fill:#8E5929;" d="M441.535,239.09c-1.008,0.182-2.177,0.659-2.337,1.67c-0.09,0.57,0.197,1.149,0.619,1.542      c0.422,0.393,0.963,0.63,1.502,0.836c2.183,0.833,4.518,1.268,6.854,1.275c0.805,0.003,1.63-0.049,2.37-0.367      c0.74-0.317,1.388-0.945,1.539-1.736c0.373-1.949-2.574-2.534-3.919-2.907C446.015,238.808,443.731,238.693,441.535,239.09z"/>
				<path style="fill:#8E5929;" d="M430.461,239.476c-0.63,0.315-1.232,0.848-1.302,1.549c-0.061,0.602,0.291,1.177,0.734,1.589      c0.973,0.903,2.462,1.206,3.711,0.755c1.565-0.566,2.238-2.359,1.098-3.7C433.745,238.541,431.606,238.903,430.461,239.476z"/>
			</g>
			<g>
				<path style="fill:#3A1D09;" d="M435.333,243.75c0.484,3.667,0.703,7.345,0.855,11.026c0.127,3.682,0.186,7.366-0.022,11.058      c-0.486-3.669-0.704-7.346-0.856-11.026C435.186,251.127,435.127,247.445,435.333,243.75z"/>
			</g>
		</g>
		<g>
			<path style="fill:#FFFBDC;" d="M463.115,184.824c-18.752-0.511-20.286,34.776-1.193,36.139     C481.015,222.327,482.202,185.344,463.115,184.824z"/>
			<path style="fill:#2B2A3F;" d="M459.029,193.452c-6.996-0.191-7.568,12.974-0.445,13.483     C465.707,207.443,466.15,193.646,459.029,193.452z"/>
			<path style="fill:#FFFFFF;" d="M458.924,196.99c-3.327-0.091-3.6,6.171-0.212,6.413     C462.101,203.645,462.311,197.082,458.924,196.99z"/>
			<path style="fill:#FFFBDC;" d="M401.043,185.824c18.752-0.511,20.286,34.776,1.193,36.139     C383.144,223.327,381.957,186.344,401.043,185.824z"/>
			<path style="fill:#2B2A3F;" d="M405.129,194.452c6.996-0.191,7.568,12.974,0.445,13.483     C398.451,208.443,398.009,194.646,405.129,194.452z"/>
			<path style="fill:#FFFFFF;" d="M405.234,197.99c3.327-0.091,3.6,6.171,0.212,6.413     C402.058,204.645,401.847,198.082,405.234,197.99z"/>
		</g>
		<g>
			<path style="fill:#663A1A;" d="M451.287,164.199c-2.095,1.519-0.402,7.21,8.498,17.646c8.9,10.437,20.645,14.293,22.657,14.209     c2.012-0.084,6.229-9.166,5.46-10.376c-0.769-1.21-8.905-1.987-18.998-8.591C458.812,170.482,453.833,162.352,451.287,164.199z"/>
			<path style="fill:#663A1A;" d="M417.24,166.84c1.842,1.817-0.689,7.188-11.06,16.164c-10.371,8.976-22.563,11.019-24.539,10.633     c-1.976-0.387-4.776-10-3.834-11.08c0.942-1.081,9.103-0.623,20.075-5.631C408.854,171.918,415.001,164.632,417.24,166.84z"/>
		</g>
		<g>
			<path style="fill:#663A1A;" d="M206.76,359.35c0.085,1.287-0.039,2.488-0.179,3.696c-0.173,1.205-0.344,2.392-0.748,3.621     c-0.39-1.235-0.392-2.511-0.243-3.749C205.767,361.683,206.078,360.454,206.76,359.35z"/>
		</g>
		<path style="opacity:0.15;fill:#770800;" d="M206.63,359.38c-0.81,5.24-0.58,8.69-1.3,8.45c-1-0.33-0.667-3.493-0.997-5.163    c-0.33-1.66-4-0.833-6.833-0.833c-3.356,0-6,0.837-6.83,0.497c-0.84-0.33,4.33-2,5.5-3.83c1.16-1.83,3.33-7,4.5-12.5    c1.16-5.5,0.323-8.667-5.837-8.667c-6.17,0-19.167,5.007-29.667,4.667c-10.5-0.33-20.667-3-26.167,1    c2.78-2.91,8.45-3.19,15.65-3.28c7.01-0.1,15.46,0,24.1-1.97c17.5-4,24.5-4,24.75,3.25s-5,17.75-5.25,18.75    C198.07,360.45,202.56,360.41,206.63,359.38z"/>
		<g>
			<path style="fill:#663A1A;" d="M198.25,359.75c-0.311,0.422-0.731,0.715-1.157,0.958c-0.427,0.249-0.884,0.425-1.346,0.574     c-0.933,0.268-1.9,0.411-2.914,0.218c0.423-0.303,0.859-0.512,1.298-0.696c0.436-0.194,0.883-0.333,1.326-0.479     C196.359,360.063,197.241,359.864,198.25,359.75z"/>
		</g>
	</g>
</g>
</svg>